<svg width="40" height="40" viewBox="0 0 40 40" fill="none" xmlns="http://www.w3.org/2000/svg">
<path fill-rule="evenodd" clip-rule="evenodd" d="M31.6667 40H8.33333C3.73167 40 0 36.2683 0 31.6667V8.33333C0 3.73167 3.73167 0 8.33333 0H31.6667C36.27 0 40 3.73167 40 8.33333V31.6667C40 36.2683 36.27 40 31.6667 40ZM27.0933 31.42C27.4517 31.675 27.9117 31.7383 28.3233 31.5817C28.7333 31.4267 29.0367 31.075 29.1283 30.6483C30.0933 26.1117 32.4367 14.625 33.315 10.4983C33.38 10.1867 33.27 9.86333 33.0267 9.655C32.7817 9.44833 32.4417 9.38833 32.14 9.5C27.4817 11.2233 13.1333 16.6067 7.26833 18.7783C6.89667 18.915 6.655 19.2733 6.66667 19.6667C6.68 20.0583 6.945 20.4 7.325 20.515C9.955 21.3 13.4083 22.395 13.4083 22.395C13.4083 22.395 15.02 27.2683 15.8617 29.745C15.9667 30.0567 16.2117 30.3017 16.5317 30.385C16.8533 30.4683 17.1933 30.3817 17.4333 30.155C18.785 28.88 20.8733 26.9083 20.8733 26.9083C20.8733 26.9083 24.8417 29.8183 27.0933 31.42ZM14.86 21.78L16.725 27.9333L17.14 24.0367C17.14 24.0367 24.3467 17.5367 28.4567 13.83C28.5767 13.7217 28.5933 13.54 28.4933 13.4117C28.3933 13.2833 28.2117 13.2533 28.075 13.34C23.3133 16.3817 14.86 21.78 14.86 21.78Z" fill="#09BAB4"/>
</svg>
