<?xml version="1.0" encoding="utf-8"?>
<!-- Generator: Adobe Illustrator 21.0.1, SVG Export Plug-In . SVG Version: 6.00 Build 0)  -->
<svg version="1.1" id="Слой_1" xmlns="http://www.w3.org/2000/svg" xmlns:xlink="http://www.w3.org/1999/xlink" x="0px" y="0px"
	 viewBox="0 0 730 310.7" style="enable-background:new 0 0 730 310.7;" xml:space="preserve">
<style type="text/css">
	.st0{opacity:0.5;fill:none;stroke:#F96714;stroke-width:13;enable-background:new    ;}
	.st1{opacity:0.5;fill:none;stroke:#09BAB4;stroke-width:13;enable-background:new    ;}
	.st2{fill:#09BAB4;}
	.st3{fill:#F96714;}
	.st4{fill:#9EA2A1;}
	.st5{fill:#9EA1A1;}
</style>
<line class="st0" x1="364" y1="302.5" x2="729" y2="302.5"/>
<line class="st1" x1="0" y1="302.5" x2="365" y2="302.5"/>
<path class="st2" d="M192.2,1.5V89h-20.1V18h-39.5v71h-20.1V1.5H192.2z M255.7,90.5c-9.1,0-17.3-2-24.6-5.9
	c-7.3-3.9-13-9.3-17.1-16.1c-4.1-6.9-6.1-14.7-6.1-23.3s2-16.3,6.1-23.1c4.2-6.9,9.9-12.3,17.1-16.3C238.4,2,246.6,0,255.7,0
	c9.1,0,17.3,2,24.5,5.9s13,9.3,17.1,16.3c4.2,6.8,6.3,14.5,6.3,23.1s-2.1,16.3-6.3,23.3c-4.2,6.8-9.9,12.2-17.1,16.1
	S264.8,90.5,255.7,90.5z M255.7,73.3c5.2,0,9.8-1.2,14-3.5c4.2-2.4,7.4-5.8,9.8-10c2.4-4.3,3.6-9.1,3.6-14.5s-1.2-10.3-3.6-14.5
	c-2.3-4.3-5.6-7.5-9.8-9.9c-4.2-2.4-8.8-3.6-14-3.6c-5.2,0-9.8,1.2-14,3.6c-4.2,2.3-7.5,5.6-9.9,9.9c-2.3,4.3-3.5,9.1-3.5,14.5
	s1.2,10.3,3.5,14.5c2.4,4.3,5.7,7.6,9.9,10C245.8,72.1,250.5,73.3,255.7,73.3z M407,72.5v34.6h-18.8V89h-61.8v18.1h-18.8l0.1-34.6
	h3.5c5.3-0.2,9-4,11.1-11.5c2.2-7.5,3.5-18.2,4-32.1l1-27.4h67.3v71H407z M344.3,30.8c-0.4,10.4-1.3,19.2-2.6,26.3
	c-1.3,7-3.4,12.2-6.1,15.5h39.1V18h-30L344.3,30.8z"/>
<path class="st3" d="M436.3,1.5L454.5,28l18.1-26.5h23.8l-29.1,41.9L498.7,89h-23.9l-20.4-29l-20.1,29H411l31.3-44.8L413,1.5H436.3z
	 M549.4,90.5c-9.1,0-17.3-2-24.6-5.9c-7.3-3.9-13-9.3-17.1-16.1c-4.1-6.9-6.1-14.7-6.1-23.3s2-16.3,6.1-23.1
	c4.2-6.9,9.9-12.3,17.1-16.3C532.1,2,540.3,0,549.4,0c9.1,0,17.3,2,24.5,5.9s13,9.3,17.1,16.3c4.2,6.8,6.3,14.5,6.3,23.1
	s-2.1,16.3-6.3,23.3c-4.2,6.8-9.9,12.2-17.1,16.1S558.5,90.5,549.4,90.5z M549.4,73.3c5.2,0,9.8-1.2,14-3.5c4.2-2.4,7.4-5.8,9.8-10
	c2.4-4.3,3.6-9.1,3.6-14.5s-1.2-10.3-3.6-14.5c-2.3-4.3-5.6-7.5-9.8-9.9c-4.2-2.4-8.8-3.6-14-3.6c-5.2,0-9.8,1.2-14,3.6
	c-4.2,2.3-7.5,5.6-9.9,9.9c-2.3,4.3-3.5,9.1-3.5,14.5s1.2,10.3,3.5,14.5c2.4,4.3,5.7,7.6,9.9,10C539.5,72.1,544.2,73.3,549.4,73.3z
	 M700.7,72.5v34.6h-18.8V89h-61.8v18.1h-18.8l0.1-34.6h3.5c5.3-0.2,9-4,11.1-11.5c2.2-7.5,3.5-18.2,4-32.1l1-27.4h67.3v71H700.7z
	 M638,30.8c-0.4,10.4-1.3,19.2-2.6,26.3c-1.3,7-3.4,12.2-6.1,15.5h39.1V18h-30L638,30.8z"/>
<path class="st4" d="M86.8,78.4H0V62.2h37.2V17.3H0V1.2h86.8v16.1H51v44.9h35.8V78.4z M20.1,160.2v-43.4L0,108.3V91.7l86.8,39.1
	v15.9L0,185.8v-16.9L20.1,160.2z M32.7,154.9l37.9-16.4l-37.9-16.2V154.9z M86.8,310.7H0V199.2h86.8v15.9H13.6v32h73.2V263H13.6
	v31.9h73.2V310.7z"/>
<path class="st5" d="M140,233c10,0,17.8,2.4,23.5,7.1s8.6,11.3,8.6,19.7c0,8.4-2.9,14.9-8.6,19.7s-13.6,7.1-23.5,7.1h-19V310h-11
	v-77H140z M139.7,277.1c7,0,12.3-1.5,15.9-4.4c3.7-3,5.5-7.3,5.5-12.9s-1.8-9.8-5.5-12.8c-3.7-3-9-4.5-15.9-4.5H121v34.5H139.7z
	 M233.6,290.8h-40.9l-8.5,19.3h-11.3l34.9-77h10.9l35,77h-11.5L233.6,290.8z M229.8,282l-16.6-37.7L196.6,282H229.8z M266.9,233H325
	v9.4h-47.2v22h24c9.2,0,16.1,1.9,20.9,5.7c4.8,3.8,7.2,9.3,7.2,16.5c0,7.6-2.6,13.3-7.8,17.4c-5.1,4-12.5,6-22.1,6h-33V233z
	 M299.5,301.3c6.3,0,11.1-1.2,14.4-3.6c3.3-2.4,5-6,5-10.7c0-9.3-6.5-14-19.4-14h-21.7v28.3H299.5z M382,310.9
	c-7.8,0-14.8-1.7-21-5.1c-6.2-3.4-11.1-8.2-14.7-14.2c-3.5-6-5.3-12.7-5.3-20.1s1.8-14.1,5.3-20.1c3.6-6,8.5-10.7,14.7-14.1
	c6.2-3.4,13.2-5.2,21-5.2c7.7,0,14.7,1.7,20.9,5.2c6.2,3.4,11.1,8.1,14.6,14.1c3.5,5.9,5.3,12.6,5.3,20.1s-1.8,14.2-5.3,20.2
	c-3.5,5.9-8.4,10.6-14.6,14.1C396.7,309.2,389.7,310.9,382,310.9z M382,301.1c5.6,0,10.7-1.3,15.2-3.9c4.5-2.6,8.1-6.1,10.7-10.6
	c2.6-4.5,4-9.6,4-15.2s-1.3-10.6-4-15.1c-2.6-4.5-6.1-8.1-10.7-10.7c-4.5-2.6-9.5-3.9-15.2-3.9c-5.6,0-10.8,1.3-15.4,3.9
	c-4.5,2.6-8.1,6.1-10.8,10.7c-2.6,4.5-3.8,9.5-3.8,15.1s1.3,10.6,3.8,15.2c2.6,4.5,6.2,8,10.8,10.6
	C371.3,299.8,376.4,301.1,382,301.1z M492.5,242.6h-26.4V310h-10.8v-67.4H429V233h63.5V242.6z M561.7,300.4v9.6h-55.9v-77h54.3v9.6
	h-43.3v23.6h38.6v9.4h-38.6v24.9H561.7z"/>
<path class="st5" d="M142.2,170.1h-16.1V204h-10.8v-77h10.8v33.4h16.3l24.2-33.4h11.8l-27.5,37.3l28.8,39.7h-12.5L142.2,170.1z"/>
</svg>
