<?xml version="1.0" encoding="UTF-8"?>
<!DOCTYPE svg PUBLIC "-//W3C//DTD SVG 1.1//EN" "http://www.w3.org/Graphics/SVG/1.1/DTD/svg11.dtd">
<!-- Creator: CorelDRAW 2020 (64-Bit Оценочная версия) -->
<svg xmlns="http://www.w3.org/2000/svg" xml:space="preserve" width="210mm" height="297mm" version="1.1" style="shape-rendering:geometricPrecision; text-rendering:geometricPrecision; image-rendering:optimizeQuality; fill-rule:evenodd; clip-rule:evenodd"
viewBox="0 0 21000 29700"
 xmlns:xlink="http://www.w3.org/1999/xlink"
 xmlns:xodm="http://www.corel.com/coreldraw/odm/2003">
 <defs>
  <style type="text/css">
   <![CDATA[
    .fil13 {fill:#3D4150}
    .fil5 {fill:#736E7A}
    .fil15 {fill:#A6786E}
    .fil10 {fill:#A81E23}
    .fil1 {fill:#B5B4BA}
    .fil8 {fill:#C51E23}
    .fil6 {fill:#CD7210}
    .fil2 {fill:#D5D6D6}
    .fil14 {fill:#DC8A85}
    .fil9 {fill:#DE2126}
    .fil12 {fill:#E03537}
    .fil11 {fill:#E34A50}
    .fil16 {fill:#E55C5F}
    .fil7 {fill:#ED9127}
    .fil4 {fill:#EDE43D}
    .fil3 {fill:#F0AA44}
    .fil0 {fill:whitesmoke}
   ]]>
  </style>
 </defs>
 <g id="Слой_x0020_1">
  <metadata id="CorelCorpID_0Corel-Layer"/>
  <g id="_2260459350048">
   <path class="fil0" d="M6066.25 15589.08c-7.32,-1227.08 -144.19,-2399.24 1351.07,-2970.35l71.24 494.65 1883.73 -2.15c29.28,-0.11 109.36,-0.04 134.91,4.11 10.66,1.74 19.7,3.66 29.41,5.92l76.19 31.42 -7.93 350.62 -2064.78 0.51c10.63,95.23 11.74,224.85 67.98,307.63 275.94,69.59 1747.38,-13.49 1897.9,23.75 109.63,27.13 36.09,-35.35 98.79,54.82l41.83 2018.45 -0.12 23.02 4.65 414.6 48.88 1890.82 10.53 288.1c11.43,263.31 9.89,1578.77 73.8,1698.07 125.1,-24.86 81.34,-52.4 79.24,-403.99 -13.95,-2352.43 57.71,-5005.96 -2.07,-7265.33l-2.05 -1200.88c-187.65,26.51 -319.86,-22.11 -483.22,-37.6 48.53,-16.95 653.21,24.91 919.89,-39.5 706.49,-170.63 757.65,-413.16 971.13,-583.99 241.25,-193.05 460.1,-731.46 498.92,-1063.81 143.13,-1225.56 -777.84,-2149.25 -1906.62,-2181.69l0 -737.07 -1980.12 -10.89c-505.21,1198.25 -494.1,1264.27 -653.69,2689.65l97.73 2388.47c17.9,265.72 70.56,496.15 70.56,761.56 -776.73,180.96 -1358,1054.79 -1352.64,1975.8 1.44,246.84 -50.1,907.44 24.86,1075.28z"/>
   <path class="fil1" d="M9861.5 12553.75c303.99,77.74 184.73,318.12 230.56,619.5l2123.72 -22.11 -45.61 356.27 -2093.26 -11 4.11 340.58 2029.72 -9.25c-15.37,749.46 -312.85,1768.59 -429.29,2524.1 747.25,1021.53 1002.88,3427.2 1086.63,3501.99l624.09 21.44c0,-455.3 139.57,-1611.41 137.71,-2102.86l70.48 -1039.01c9.59,-177.7 -12.9,-377.18 1.65,-553.09 60.77,-734.32 140.25,-2029.11 -128.28,-2579.72 -241.06,-494.26 -633.93,-932.8 -1191.05,-1062.59 63.35,-271.9 133.34,-1180.53 168.3,-1495.93 14.88,-134.33 -4.85,-271.61 10.12,-405.92 81.54,-730.91 -38.65,-1966.98 -186.81,-2666.38 -95.74,-452.03 -266.75,-877.55 -442.33,-1266.63l-1972.41 6.07 0 737.07c1128.78,32.44 2049.75,956.13 1906.62,2181.69 -38.82,332.35 -257.67,870.76 -498.92,1063.81 -213.48,170.83 -264.64,413.36 -971.13,583.99 -266.68,64.41 -871.36,22.55 -919.89,39.5 163.36,15.49 295.57,64.11 483.22,37.6l2.05 1200.88z"/>
   <path class="fil2" d="M6066.25 15589.08l64.98 1609.51c40.26,266.01 98.45,2453.93 187.99,2655.24l624.07 19.24c3.53,-130.21 55.06,-312 83.79,-455.71l318.01 -1450.23c152,-604.38 357.05,-1250.6 707.69,-1635.82 -66.69,-94.92 -72.74,-188.19 -94.75,-304.07 -17.3,-91.09 -38.59,-191.27 -56.55,-287.55 -75.61,-405.28 -306.94,-1553.25 -304.88,-1849.68l11.47 -78.57c-56.24,-82.78 -57.35,-212.4 -67.98,-307.63l-54.67 -349.63 2127.38 -1.5 -76.19 -31.42c-9.71,-2.26 -18.75,-4.18 -29.41,-5.92 -25.55,-4.15 -105.63,-4.22 -134.91,-4.11l-1883.73 2.15 -71.24 -494.65c-1495.26,571.11 -1358.39,1743.27 -1351.07,2970.35z"/>
   <path class="fil3" d="M8995.68 18605.48c-200.74,119.33 -393.71,502.56 -487.76,732.51 -548.48,1340.85 -138.28,2870.34 268.54,4091.22 286.76,860.56 522.33,1392.53 856.32,2194.76 62.65,150.52 157.39,303.43 188.24,435.85l112.7 -164.68c738.3,-1412.88 1691.08,-4165.03 1507.84,-5581.75 -50.72,-392.14 -118.21,-657.03 -253.13,-995.04 -99.15,-248.38 -309.72,-630.72 -507.9,-747.54 642.29,1379.87 -123.56,3647.31 -831.16,4808.32 -134.21,-172.37 -386.73,-772.63 -489.58,-1018.57 -155.59,-372.03 -278.44,-728.36 -391.9,-1135.04 -269.46,-965.8 -301.46,-1718.11 27.79,-2620.04z"/>
   <path class="fil4" d="M8995.68 18605.48c-329.25,901.93 -297.25,1654.24 -27.79,2620.04 113.46,406.68 236.31,763.01 391.9,1135.04 102.85,245.94 355.37,846.2 489.58,1018.57 707.6,-1161.01 1473.45,-3428.45 831.16,-4808.32l-27.4 -47.61 -663.49 16.32c-60.93,223.96 -60.48,1537.71 -67.45,1868.94 -12.51,594.08 -34.73,1272.98 -78.66,1822.61l-59.2 -2008c-63.91,-119.3 -62.37,-1434.76 -73.8,-1698.07l-652.28 6.02 -62.57 74.46z"/>
   <path class="fil5" d="M9517.12 7950.78c-710.74,164.44 -1327.68,871.97 -1118.36,1782.09 433.86,1886.4 3320.6,1280.77 2904.14,-652.1 -155.07,-719.77 -887.71,-1337.78 -1785.78,-1129.99z"/>
   <path class="fil6" d="M9587.05 8021.82c-1832.45,382.19 -1295.77,3093.69 527.01,2759.47 689.93,-126.52 1278.94,-799.47 1113.08,-1663.76 -128.66,-670.46 -803.01,-1270.28 -1640.09,-1095.71z"/>
   <path class="fil7" d="M8748.25 9895.4c4.24,8.14 11.14,11.15 13.3,24.08l26.42 46.92c3.52,5.88 9.43,15.86 13.36,22.25l211.73 271.87c672.09,649.9 1813.3,305.94 2006.07,-612.7 81.79,-389.77 -39.18,-833.53 -272.37,-1025.96 -478.92,-259.31 -975.45,-289.18 -1424.49,20.06 -183.38,126.26 -326.55,274.33 -431.83,504.11 -125.21,273.32 -100.22,658.1 -142.19,749.37z"/>
   <path class="fil5" d="M9784.33 20223.07l59.2 2008c43.93,-549.63 66.15,-1228.53 78.66,-1822.61 6.97,-331.23 6.52,-1644.98 67.45,-1868.94l18.67 -300.62 644.82 4.84c52.67,-287.36 142.13,-553.21 215.02,-844.76 53.84,-215.38 189.41,-644.83 205.07,-873.78 -111.87,-127.42 -164.61,-194.61 -418.43,-184.34 -209.47,8.48 -386.96,25.78 -610.88,25.69l12.69 -437.44 12 -1060.83 12.42 -1031.29 -4.11 -340.58 15.15 -323.16c-45.83,-301.38 73.43,-541.76 -230.56,-619.5 59.78,2259.37 -11.88,4912.9 2.07,7265.33 2.1,351.59 45.86,379.13 -79.24,403.99z"/>
   <path class="fil8" d="M10068.6 14868.28l-12 1060.83c363.19,0 694.72,-18.45 1046.36,44.13l240.9 -2149.43 -1249.8 -1.61 -25.46 1046.08z"/>
   <path class="fil9" d="M8052.78 6350.31l1677.7 11.47 14.37 -480.53 106.15 -83.54c5.37,-4.65 15.57,-13.56 23.11,-20.62l16.26 -1573.08c-85.04,-26.58 -10.16,-55.5 -267.18,161.72 -95.44,80.66 -171.57,169 -261.59,258.51 -105.02,104.4 -137.75,142.73 -228.86,256.54 -81.26,101.52 -153.45,166.18 -242.99,277.08 -504.3,624.68 -542.51,790.25 -836.97,1192.45z"/>
   <path class="fil10" d="M9730.48 6361.78l1928.12 4.58c-163.5,-243.5 -389.2,-643.52 -581.16,-874.88l-1187.07 -1287.47 -16.26 1573.08c-7.54,7.06 -17.74,15.97 -23.11,20.62l-106.15 83.54 -14.37 480.53z"/>
   <path class="fil10" d="M10068.6 14868.28l25.46 -1046.08 1249.8 1.61 -240.9 2149.43 101.48 66.56c202.45,45.03 342.44,196.38 477.01,312.04 116.44,-755.51 413.92,-1774.64 429.29,-2524.1l-2029.72 9.25 -12.42 1031.29z"/>
   <path class="fil2" d="M8607.52 16517.16c61.75,294.48 145.35,554.5 221.93,860.92 53.95,215.86 145.12,697.87 228.8,857.52l641.75 1.3 -48.88 -1890.82c-534.53,0 -698.21,-91.97 -1043.6,171.08z"/>
   <path class="fil9" d="M8052.78 16331.31c81.91,-76.49 124.11,-122.78 214.31,-182.62 35.97,-23.87 64.46,-45.42 110.74,-65.9 134.63,-59.6 56.03,-43.97 98.52,-8.32 63.47,-112.03 -65.83,-38.94 121.63,-96.97l-348.01 -2087.49 -653.37 0c-2.06,296.43 229.27,1444.4 304.88,1849.68 17.96,96.28 39.25,196.46 56.55,287.55 22.01,115.88 28.06,209.15 94.75,304.07z"/>
   <path class="fil11" d="M8597.98 15977.5c369.74,-44.88 668.17,-46.02 1048.49,-46.02l0.12 -23.02 -468.19 -23.83 -205.76 -1994.59 632.12 -0.03c-62.7,-90.17 10.84,-27.69 -98.79,-54.82 -150.52,-37.24 -1621.96,45.84 -1897.9,-23.75l-11.47 78.57 653.37 0 348.01 2087.49z"/>
   <polygon class="fil9" points="9646.59,15908.46 9604.76,13890.01 8972.64,13890.04 9178.4,15884.63 "/>
   <polygon class="fil12" points="7540.09,13503.81 9604.87,13503.3 9612.8,13152.68 7485.42,13154.18 "/>
   <polygon class="fil8" points="10076.91,13496.41 12170.17,13507.41 12215.78,13151.14 10092.06,13173.25 "/>
   <path class="fil2" d="M7983.43 6565.43l3744.51 -25.86c-34.37,-128.19 -35.06,-44.58 -69.34,-173.21l-1928.12 -4.58 -1677.7 -11.47c-37.82,91.31 -49.61,100.54 -69.35,215.12z"/>
   <path class="fil0" d="M8748.25 9895.4c41.97,-91.27 16.98,-476.05 142.19,-749.37 105.28,-229.78 248.45,-377.85 431.83,-504.11 449.04,-309.24 945.57,-279.37 1424.49,-20.06 -309.11,-391.11 -994.12,-603.98 -1541.59,-236.75 -209.85,140.76 -378.17,305.6 -482.94,593.47 -153.44,421.65 -46.01,557.99 26.02,916.82z"/>
   <path class="fil8" d="M7879.43 6698.32l1980.12 10.89 1972.41 -6.07c-20.43,-31.94 -26.6,-51.16 -46.55,-82.59 -42.55,-67.05 -13.78,-30.4 -57.47,-80.98l-3744.51 25.86c-59.31,14.04 -21.63,-15.62 -67.54,46.12 -28.08,37.76 -20.95,33.85 -36.46,86.77z"/>
   <path class="fil9" d="M6873.96 20263.77c-149.7,-25.78 -402.79,-44.09 -516.32,5.94l115.02 1510.78c16.39,117.75 4.05,264.47 40.91,375.16 49.92,149.97 5.49,28.63 48.34,90.31l312.05 -1982.19z"/>
   <path class="fil10" d="M13357.5 20260.35l-520.07 -15.64 346.71 2001.25 89.32 -985.48c21.3,-148.52 41.31,-379.53 48.35,-506.4 10.94,-197.54 35.69,-294.02 35.69,-493.73z"/>
   <path class="fil13" d="M11073.22 16525.2c31.65,-51.19 13.52,-8.03 43.27,-91.57 19.46,-54.62 21.5,-74.53 36.93,-136.21 24.54,-98.15 47.07,-162.85 51.02,-257.62l-101.48 -66.56c-351.64,-62.58 -683.17,-44.13 -1046.36,-44.13l-12.69 437.44c223.92,0.09 401.41,-17.21 610.88,-25.69 253.82,-10.27 306.56,56.92 418.43,184.34z"/>
   <path class="fil13" d="M8597.98 15977.5c-187.46,58.03 -58.16,-15.06 -121.63,96.97 57.08,171.34 89.39,283.27 131.17,442.69 345.39,-263.05 509.07,-171.08 1043.6,-171.08l-4.65 -414.6c-380.32,0 -678.75,1.14 -1048.49,46.02z"/>
   <path class="fil14" d="M6357.64 20269.71c113.53,-50.03 366.62,-31.72 516.32,-5.94 8.8,-142.66 44.35,-260.84 69.33,-390.7l-624.07 -19.24c0,76.55 -5.61,173.61 -2.92,247.77 1.12,31.08 2.07,64.22 8.97,94.16 18.44,79.87 -0.84,26.73 32.37,73.95z"/>
   <path class="fil15" d="M12837.43 20244.71l520.07 15.64c2.98,-172.95 34.67,-189.42 34.67,-385.08l-624.09 -21.44 69.35 390.88z"/>
   <polygon class="fil12" points="9989.64,18539.52 10653.13,18523.2 10653.13,18243.74 10008.31,18238.9 "/>
   <polygon class="fil16" points="9058.25,18531.02 9710.53,18525 9700,18236.9 9058.25,18235.6 "/>
  </g>
 </g>
</svg>
