<?xml version="1.0" encoding="UTF-8"?>
<!DOCTYPE svg PUBLIC "-//W3C//DTD SVG 1.1//EN" "http://www.w3.org/Graphics/SVG/1.1/DTD/svg11.dtd">
<!-- Creator: CorelDRAW 2020 (64-Bit) -->
<svg xmlns="http://www.w3.org/2000/svg" xml:space="preserve" width="1676px" height="1781px" version="1.1" style="shape-rendering:geometricPrecision; text-rendering:geometricPrecision; image-rendering:optimizeQuality; fill-rule:evenodd; clip-rule:evenodd"
viewBox="0 0 2994.64 3182.61"
 xmlns:xlink="http://www.w3.org/1999/xlink"
 xmlns:xodm="http://www.corel.com/coreldraw/odm/2003">
 <defs>
  <style type="text/css">
   <![CDATA[
    .fil4 {fill:#00000E;fill-rule:nonzero}
    .fil3 {fill:#060C2E;fill-rule:nonzero}
    .fil8 {fill:#099993;fill-rule:nonzero}
    .fil1 {fill:#09B9B4;fill-rule:nonzero}
    .fil7 {fill:#30395C;fill-rule:nonzero}
    .fil6 {fill:#97B3DE;fill-rule:nonzero}
    .fil2 {fill:#B0CAE8;fill-rule:nonzero}
    .fil10 {fill:#EC867C;fill-rule:nonzero}
    .fil0 {fill:#F86714;fill-rule:nonzero}
    .fil11 {fill:#FBF9FB;fill-rule:nonzero}
    .fil5 {fill:#FCAE82;fill-rule:nonzero}
    .fil9 {fill:#FE9171;fill-rule:nonzero}
   ]]>
  </style>
 </defs>
 <g id="Слой_x0020_1">
  <metadata id="CorelCorpID_0Corel-Layer"/>
  <g id="_1365779701344">
   <path class="fil0" d="M2799.88 2451.81c-128.65,228.71 -305.54,407.39 -534.25,536.04 -226.92,128.65 -482.43,194.76 -768.31,194.76 -285.88,0 -543.18,-66.11 -770.1,-196.55 -226.92,-130.43 -405.6,-309.11 -534.25,-537.82 -128.65,-226.92 -192.97,-482.43 -192.97,-764.74 0,-230.49 41.1,-439.55 125.07,-628.95 82.2,-189.4 203.7,-348.42 360.93,-478.85l328.77 335.91c-226.92,201.91 -341.28,452.06 -341.28,746.87 0,192.98 44.68,364.51 132.23,516.38 85.76,151.88 207.26,269.81 362.71,355.57 155.45,85.77 332.34,128.65 528.89,128.65 196.55,0 373.44,-42.88 527.1,-128.65 155.45,-85.76 276.95,-203.69 364.5,-355.57 87.56,-151.87 130.44,-323.4 130.44,-516.38 0,-294.81 -114.36,-544.96 -344.85,-746.87l332.34 -335.91c159.02,130.43 278.74,291.24 362.72,482.43 82.19,189.4 125.07,400.24 125.07,628.94 0,282.31 -64.32,537.82 -194.76,764.74z"/>
  </g>
  <g id="_1365779680944">
   <path class="fil1" d="M1952.95 414.89c28.59,0 50.03,21.44 76.83,50.03 19.65,19.65 51.82,53.6 42.88,82.19 -8.93,26.8 -33.95,62.54 -48.24,85.76 -35.74,51.82 -178.68,121.5 -237.64,157.24l-125.08 71.47c-17.86,10.72 -23.22,14.29 -25.01,39.31 12.51,30.38 -58.97,130.43 -132.22,142.94 -100.06,17.87 -153.67,-55.39 -196.55,-80.4 -41.1,-19.66 -69.68,-8.94 -108.99,5.36 -87.55,33.95 -185.83,96.48 -235.86,175.1 -46.45,75.05 -66.11,83.98 -116.14,157.24 -37.52,57.18 -71.47,105.42 -103.63,169.74 -53.6,98.28 -178.68,234.07 -175.1,373.44 3.57,105.42 53.6,155.45 125.07,216.2 67.9,55.39 44.67,26.8 91.12,50.03 19.66,10.72 23.23,19.65 48.25,25.01 -7.15,-82.19 -32.16,-184.03 -46.46,-266.23 -8.93,-42.88 -16.08,-87.55 -25.01,-128.64 -12.51,-55.39 -33.95,-94.7 33.95,-105.42 37.52,-3.58 146.51,8.93 169.74,-5.36l-91.13 -1.79c32.17,-32.16 92.92,-169.74 205.48,-268.02 12.51,16.08 26.8,55.39 26.8,78.62 -1.78,33.95 -32.16,41.1 -39.3,71.47 25.01,7.15 26.8,23.23 33.94,50.03 3.58,17.87 10.73,48.25 10.73,71.47 76.83,1.79 736.15,-7.14 752.23,-17.86 12.51,-62.54 -1.79,-323.41 3.57,-421.69 1.79,-23.22 5.36,-25.01 5.36,-51.81 -7.14,-17.87 21.44,-98.27 26.8,-112.57 17.87,-41.09 60.76,-92.91 91.13,-126.86 69.68,-78.62 167.96,-200.12 217.99,-285.88 42.88,-71.48 58.96,-130.44 48.24,-226.93l21.44 12.51c-5.36,-14.29 -28.59,-37.52 -39.31,-50.03 -53.6,-51.81 -100.06,-78.62 -167.95,-112.57 -48.25,-25.01 -209.06,-112.56 -259.09,-112.56l-21.44 10.72c48.25,100.06 167.96,135.79 162.6,278.74z"/>
   <path class="fil2" d="M1111.38 1631.68l-137.59 0 -8.93 -1.78c-23.23,14.29 -132.22,1.78 -169.74,5.36 -1.79,37.52 26.8,164.38 35.73,210.84 12.51,69.68 26.8,137.58 37.52,207.26 12.51,69.69 25.02,139.37 41.1,207.27 10.72,48.24 14.29,44.67 67.9,51.82 144.73,21.44 437.76,1.78 603.93,5.36 166.17,3.57 318.04,5.36 484.21,-3.58 7.15,-10.72 19.66,-35.73 32.17,-46.45 17.87,-41.1 25.01,-101.85 33.95,-153.67 10.72,-66.11 69.68,-434.18 69.68,-487.79 -141.16,-12.5 -192.97,-12.5 -337.7,-12.5 -16.08,10.72 -675.4,19.65 -752.23,17.86z"/>
   <path class="fil3" d="M645.03 2751.99c37.52,3.58 48.24,16.08 85.76,26.8l260.87 57.18c39.31,7.15 339.49,62.54 348.42,71.47 51.82,0 46.46,7.15 85.77,14.3 30.37,5.36 64.32,0 96.49,1.78 32.16,3.58 46.45,17.87 71.47,26.81 41.09,16.08 46.45,1.78 69.68,-16.09 5.36,-26.8 21.44,-57.17 28.59,-85.76 10.72,-32.16 14.29,-58.97 19.65,-94.7 8.94,-5.36 -12.5,-8.93 16.08,-3.57 -48.24,-71.47 -553.9,-243.01 -605.71,-298.4 -51.82,-10.72 -110.78,-44.66 -157.24,-66.11 -21.44,-8.93 -58.96,-21.44 -76.83,-33.95 -33.95,-21.44 -10.72,-50.03 -33.95,-73.25 -134.01,-41.1 -380.59,-100.06 -500.3,-41.1 -33.95,17.87 -80.4,82.19 -91.12,160.81l0 73.26c8.93,55.39 39.3,112.57 107.2,159.02 35.74,25.02 232.28,119.72 275.17,121.5z"/>
   <path class="fil4" d="M2079.81 2337.46c-10.72,130.43 -28.59,116.14 -151.88,114.35 -89.33,-1.78 -180.46,0 -269.8,0 -178.68,0 -357.36,0 -536.03,0 51.81,55.39 557.47,226.93 605.71,298.4l75.05 8.93c83.98,-37.52 26.8,-19.65 130.43,-42.88 217.99,-50.03 250.15,-112.57 400.24,8.93 28.59,-32.16 73.26,-10.72 132.22,-51.81 57.18,-37.53 50.03,-44.68 130.44,-60.76 28.59,-7.14 42.88,-14.29 67.9,-25.01 39.31,-16.08 60.75,-50.03 67.89,-89.34l0 -69.68c-7.14,-41.1 -25.01,-80.41 -50.03,-105.42 -23.22,-23.23 -35.73,-23.23 -71.47,-28.59l-184.03 5.36c-32.17,0 -62.54,0 -92.92,0 -44.67,0 -55.39,0 -91.12,7.14 -33.95,7.15 -16.08,-3.57 -78.62,14.3 -23.23,5.36 -57.18,14.29 -83.98,16.08z"/>
   <path class="fil3" d="M1166.77 514.95l19.65 28.58 50.03 -23.22 30.37 23.22c14.3,-41.09 -7.14,-41.09 25.02,-85.76 25.02,-35.74 21.44,-37.52 37.52,-80.41 32.17,3.58 69.69,16.08 100.06,17.87 46.46,1.79 41.1,-26.8 58.97,-55.39 46.45,28.59 83.97,85.77 192.97,103.64 0,60.75 -5.36,67.89 19.65,119.71l14.3 -42.88c39.31,1.78 53.6,19.65 64.32,53.6 41.1,-26.8 48.24,-46.46 48.24,-114.35 35.74,0 114.36,-3.58 125.08,-44.67 5.36,-142.95 -114.35,-178.68 -162.6,-278.74l21.44 -10.72c-101.84,-26.8 -55.39,-78.62 -180.46,-100.06 -205.48,-33.95 -125.08,-8.93 -235.86,17.87 -28.58,-42.89 -82.19,-64.33 -123.28,-14.3 -37.53,44.67 -51.82,100.06 -67.9,134.01 -82.19,0 -75.05,-23.23 -76.83,66.11 0,57.18 -41.1,57.18 -60.75,92.91 -30.38,60.75 19.65,76.83 42.88,89.34 51.82,26.8 21.44,57.18 57.18,103.64z"/>
   <path class="fil5" d="M1266.82 543.53c-23.22,55.39 -5.36,67.9 -16.08,107.21 -7.14,41.1 17.87,96.49 37.53,117.93 25.01,30.37 53.6,51.82 75.04,85.76 21.44,-12.5 75.05,0 109,-1.78 41.09,0 71.47,-7.15 110.77,-10.72 51.82,-28.59 92.92,-58.97 110.79,-117.93 14.29,-46.46 1.78,-46.46 16.08,-67.9l3.57 -87.55 -12.51 -5.36c-25.01,-51.82 -19.65,-58.96 -19.65,-119.71 -109,-17.87 -146.52,-75.05 -192.97,-103.64 -17.87,28.59 -12.51,57.18 -58.97,55.39 -30.37,-1.79 -67.89,-14.29 -100.06,-17.87 -16.08,42.89 -12.5,44.67 -37.52,80.41 -32.16,44.67 -10.72,44.67 -25.02,85.76z"/>
   <path class="fil6" d="M832.64 2135.55c-1.79,26.81 12.51,125.08 21.44,142.95 23.23,23.22 0,51.81 33.95,73.25 17.87,12.51 55.39,25.02 76.83,33.95 46.46,21.45 105.42,55.39 157.24,66.11 178.67,0 357.35,0 536.03,0 89.34,0 180.47,-1.78 269.8,0 123.29,1.79 141.16,16.08 151.88,-114.35 7.15,-10.72 16.08,-51.82 17.87,-69.68 -12.51,10.72 -25.02,35.73 -32.17,46.45 -166.17,8.94 -318.04,7.15 -484.21,3.58 -166.17,-3.58 -459.2,16.08 -603.93,-5.36 -53.61,-7.15 -57.18,-3.58 -67.9,-51.82 -16.08,-67.9 -28.59,-137.58 -41.1,-207.27 -10.72,-69.68 -25.01,-137.58 -37.52,-207.26 -8.93,-46.46 -37.52,-173.32 -35.73,-210.84 -67.9,10.72 -46.46,50.03 -33.95,105.42 8.93,41.09 16.08,85.76 25.01,128.64 14.3,82.2 39.31,184.04 46.46,266.23z"/>
   <path class="fil7" d="M1802.86 2759.14c32.16,19.65 64.32,-3.57 50.03,91.13 -8.93,60.75 -16.08,58.96 -44.67,96.48l-60.75 -7.15c5.36,25.02 5.36,14.3 0,39.31 44.67,10.72 135.79,10.72 196.54,10.72l5.37 0c141.15,0 309.11,-14.29 373.43,-162.59 14.3,-30.38 10.72,-62.54 10.72,-101.85 -150.09,-121.5 -182.25,-58.96 -400.24,-8.93 -103.63,23.23 -46.45,5.36 -130.43,42.88z"/>
   <path class="fil8" d="M1872.54 1140.32l326.98 -310.9 105.42 -130.44c48.25,-83.97 55.39,-216.2 -26.8,-298.39l-21.44 -12.51c10.72,96.49 -5.36,155.45 -48.24,226.93 -50.03,85.76 -148.31,207.26 -217.99,285.88 -30.37,33.95 -73.26,85.77 -91.13,126.86 -5.36,14.3 -33.94,94.7 -26.8,112.57z"/>
   <path class="fil7" d="M1340.08 2907.44c-8.93,-8.93 -309.11,-64.32 -348.42,-71.47l-260.87 -57.18c-37.52,-10.72 -48.24,-23.22 -85.76,-26.8 12.5,58.97 39.31,109 78.62,142.95 51.81,44.66 89.33,21.44 187.61,37.52 67.89,10.72 139.37,7.14 216.2,7.14 76.83,0 164.38,28.59 180.46,-32.16l32.16 0z"/>
   <path class="fil9" d="M1663.49 2934.24c37.52,0 48.24,5.36 83.98,5.36l60.75 7.15c28.59,-37.52 35.74,-35.73 44.67,-96.48 14.29,-94.7 -17.87,-71.48 -50.03,-91.13l-75.05 -8.93c-28.58,-5.36 -7.14,-1.79 -16.08,3.57 -5.36,35.73 -8.93,62.54 -19.65,94.7 -7.15,28.59 -23.23,58.96 -28.59,85.76z"/>
   <path class="fil10" d="M1363.31 854.43c0,17.87 -3.57,19.66 -5.36,37.53 -1.78,14.29 0,32.16 0,46.45 12.51,10.72 33.95,21.44 55.39,33.95 23.23,12.51 48.24,21.44 80.41,17.87 48.24,-7.15 101.84,-53.6 116.14,-82.19 -17.87,-5.36 -16.08,-5.36 -21.44,-21.44 -5.37,-14.3 -5.37,-26.81 -5.37,-44.67 -39.3,3.57 -69.68,10.72 -110.77,10.72 -33.95,1.78 -87.56,-10.72 -109,1.78z"/>
   <path class="fil8" d="M964.86 1629.9l8.93 1.78c5.36,-16.08 8.94,-16.08 19.66,-30.37 8.93,-12.51 14.29,-21.44 23.23,-32.16 16.08,-19.66 30.37,-44.67 50.03,-58.97 7.14,-30.37 37.52,-37.52 39.3,-71.47 0,-23.23 -14.29,-62.54 -26.8,-78.62 -112.56,98.28 -173.31,235.86 -205.48,268.02l91.13 1.79z"/>
   <path class="fil11" d="M1609.89 908.04c-14.3,28.59 -67.9,75.04 -116.14,82.19 -32.17,3.57 -57.18,-5.36 -80.41,-17.87 -21.44,-12.51 -42.88,-23.23 -55.39,-33.95 -17.87,-14.29 -3.57,-7.14 -23.23,-5.36 -16.08,1.79 -19.65,5.36 -32.16,7.15l5.36 23.23c42.88,25.01 96.49,98.27 196.55,80.4 73.25,-12.51 144.73,-112.56 132.22,-142.94 -12.51,5.36 -12.51,5.36 -26.8,7.15l0 0z"/>
   <path class="fil10" d="M1250.74 650.74c10.72,-39.31 -7.14,-51.82 16.08,-107.21l-30.37 -23.22 -50.03 23.22 -19.65 -28.58c0,26.8 5.36,55.39 8.93,76.83 -1.79,50.03 14.29,30.37 23.23,64.32 16.08,0 23.23,-5.36 51.81,-5.36z"/>
   <path class="fil10" d="M1701.01 563.19l12.51 5.36 -3.57 87.55c39.31,-7.14 46.45,-3.57 67.89,-23.23 -1.78,-21.44 1.79,-33.95 1.79,-58.96 -10.72,-33.95 -25.01,-51.82 -64.32,-53.6l-14.3 42.88z"/>
   <path class="fil4" d="M1538.42 716.85c-12.51,3.58 -7.15,1.79 -16.08,10.72 -5.36,10.72 -12.51,39.31 -50.03,39.31 -51.82,-1.78 -39.31,-44.67 -71.48,-50.03 1.79,32.16 37.53,66.11 71.48,66.11 35.73,1.79 80.4,-42.88 66.11,-66.11z"/>
  </g>
 </g>
</svg>
