<svg width="187" height="47" viewBox="0 0 187 47" fill="none" xmlns="http://www.w3.org/2000/svg">
<path d="M0 3.68539H7.76293V45.1997H0V3.68539Z" fill="black"/>
<path d="M56.1898 3.68539V45.1997H49.8005L26.7512 17.0899V45.2018H19.0481V3.68751H25.4417L48.4868 31.7983V3.68539H56.1898Z" fill="black"/>
<path d="M100.377 3.68539H108.14V45.1997H100.377V3.68539Z" fill="black"/>
<path d="M127.901 10.2098H114.048V3.68539H149.517V10.2098H135.664V45.2018H127.901V10.2098Z" fill="black"/>
<path d="M186.718 38.7411V45.2061H155.369V3.69176H185.882V10.1567H163.126V20.9441H183.309V27.2901H163.126V38.7411H186.718Z" fill="black"/>
<path d="M96.9414 35.6047C95.1415 38.8063 92.4861 41.4517 89.2683 43.2493C86.0044 45.0896 82.3221 46.0098 78.2215 46.0098C74.1209 46.0098 70.4386 45.0783 67.1747 43.2153C63.9603 41.4028 61.3067 38.751 59.5015 35.5474C57.6486 32.2977 56.7222 28.6584 56.7222 24.6294C56.7222 21.3614 57.3194 18.3778 58.5138 15.6789C59.677 13.0223 61.4582 10.6778 63.7112 8.83804L68.4286 13.6265C65.1653 16.5152 63.5333 20.0689 63.5326 24.2875C63.5326 27.024 64.1594 29.4756 65.413 31.6423C66.643 33.7854 68.4532 35.5432 70.6381 36.7164C72.868 37.9331 75.3958 38.5411 78.2215 38.5404C81.0471 38.5397 83.5749 37.9317 85.8048 36.7164C87.9899 35.5435 89.8002 33.7856 91.03 31.6423C92.2835 29.4756 92.9103 27.024 92.9103 24.2875C92.9103 20.0689 91.2584 16.5152 87.9545 13.6265L92.7318 8.83804C94.9889 10.6849 96.77 13.0399 97.927 15.7076C99.1214 18.4249 99.7186 21.418 99.7186 24.6868C99.7179 28.7157 98.7922 32.355 96.9414 35.6047Z" fill="#F96714"/>
<path d="M84.7797 6.54893C85.1656 6.55742 85.4734 6.86002 85.8775 7.26879C86.1501 7.54485 86.6258 8.01838 86.4772 8.44415C86.3532 8.81151 85.994 9.32646 85.7856 9.64286C85.2906 10.3946 83.2307 11.3894 82.3905 11.8948L80.5732 12.9056C80.3306 13.0808 80.2376 13.1275 80.229 13.4906C80.4043 13.9079 79.3738 15.3296 78.3252 15.5154C76.8949 15.7691 76.1306 14.7254 75.5095 14.3591C74.9237 14.0831 74.494 14.2402 73.9466 14.4483C72.6724 14.9325 71.2742 15.8127 70.558 16.9413C69.877 18.0105 69.5959 18.1379 68.8861 19.1858C68.3416 19.9626 67.8396 20.7679 67.382 21.5981C66.6338 23.005 64.825 24.9458 64.887 26.9366C64.933 28.4305 65.6535 29.1503 66.6765 30.0061C67.6386 30.813 67.3307 30.3883 67.9871 30.7355C68.28 30.8906 68.3078 30.9946 68.6798 31.0753C68.5729 29.9222 68.2126 28.4538 68.0031 27.2849C67.8962 26.6627 67.7893 26.0267 67.6525 25.4438C67.4708 24.6623 67.1597 24.0901 68.1421 23.9393C68.6766 23.8926 70.2512 24.0667 70.5847 23.8788L69.257 23.8575C69.7178 23.3914 70.6039 21.4155 72.2063 20.0119C72.4427 20.3488 72.5767 20.7461 72.5922 21.1564C72.5719 21.6342 72.1518 21.7309 72.0364 22.1704C72.4009 22.2607 72.433 22.5006 72.5238 22.8701C72.6112 23.2075 72.6627 23.553 72.6778 23.9011C73.7874 23.9138 83.2446 23.8055 83.4926 23.6547C83.6658 22.7459 83.4563 19.0213 83.5311 17.6389C83.5503 17.2864 83.6102 17.2843 83.6102 16.8819C83.5033 16.6355 83.9052 15.4761 83.9929 15.2892C84.2623 14.7031 84.8769 13.9536 85.3067 13.4715C86.304 12.3524 87.7108 10.6335 88.442 9.39866C89.0481 8.37407 89.2694 7.53104 89.1368 6.15502L89.4308 6.35675C89.357 6.1444 89.0278 5.79721 88.861 5.63264C88.1031 4.88092 87.4297 4.50188 86.4676 4.02515C85.7728 3.68115 83.4573 2.42616 82.7262 2.4113L82.4322 2.56737C83.1302 3.99012 84.8502 4.50719 84.7733 6.55105L84.7797 6.54893Z" fill="#09BAB4"/>
<path d="M72.682 23.9021L70.7162 23.8915L70.589 23.8798C70.2554 24.0678 68.6787 23.8936 68.1463 23.9403C68.1068 24.4797 68.5301 26.3027 68.6509 26.9536C68.8358 27.9495 69.0293 28.9284 69.2057 29.919C69.3821 30.9097 69.5553 31.8992 69.7787 32.8633C69.938 33.5534 69.9925 33.5173 70.7536 33.6203C72.8445 33.9059 77.0403 33.6203 79.4294 33.6829C81.8186 33.7456 84.0089 33.7604 86.3778 33.6458C86.4847 33.4727 86.6547 33.1149 86.8364 32.9811C87.094 32.3919 87.1966 31.5106 87.3196 30.7759C87.4756 29.8426 88.3308 24.5944 88.3308 23.8129C86.3169 23.6462 85.5632 23.6569 83.4948 23.6569C83.2468 23.8076 73.7895 23.9159 72.6799 23.9032L72.682 23.9021Z" fill="#B0CAE8"/>
<path d="M65.9977 39.8761C66.5322 39.9292 66.6786 40.1129 67.2174 40.2552L70.9588 41.0674C71.5382 41.1821 75.827 41.9784 75.9723 42.092C76.7057 42.092 76.633 42.1981 77.1931 42.2969C77.6367 42.3776 78.121 42.2969 78.5828 42.3277C79.0446 42.3585 79.2669 42.5836 79.6133 42.712C80.2151 42.9361 80.2718 42.7258 80.6235 42.4827C80.6791 42.1037 80.9153 41.6556 81.035 41.2479C81.1581 40.8086 81.2499 40.3612 81.3098 39.909C81.4391 39.8283 81.1216 39.7901 81.5481 39.8506C80.8383 38.843 73.5704 36.384 72.8338 35.5909C72.0855 35.4401 71.2475 34.9538 70.5729 34.6619C70.2758 34.5313 69.7338 34.3571 69.4794 34.1851C68.9973 33.8603 69.3222 33.4653 68.9855 33.1234C67.0784 32.5522 63.5155 31.689 61.8041 32.5416C61.3102 32.7868 60.6582 33.7222 60.4914 34.8328V35.8744C60.6186 36.6739 61.0644 37.484 62.0307 38.1412C62.5535 38.4969 65.3766 39.84 65.9966 39.8761H65.9977Z" fill="#060C2F"/>
<path d="M86.6001 33.9632C86.4334 35.8139 86.1725 35.6058 84.4002 35.5803C83.1174 35.5622 81.8282 35.5803 80.5465 35.5803C77.9809 35.5803 75.4036 35.592 72.8338 35.5803C73.5693 36.3734 80.8383 38.8324 81.5481 39.84L82.6171 39.9642C83.8293 39.4408 83.0126 39.6924 84.4921 39.359C87.6071 38.6636 88.0839 37.7494 90.2218 39.4843C90.6494 39.0288 91.2908 39.3442 92.146 38.7613C92.9541 38.207 92.8611 38.1041 94.0092 37.8779C94.4272 37.7951 94.6196 37.6751 94.9916 37.5254C95.5571 37.2961 95.8618 36.8087 95.9676 36.2439V35.2586C95.8693 34.6693 95.6084 34.1055 95.2439 33.7445C94.9136 33.4175 94.734 33.4196 94.2155 33.3549L91.5634 33.4164H90.2218C89.5901 33.4164 89.4479 33.4164 88.9177 33.5226C88.4292 33.6288 88.7039 33.4738 87.7835 33.7243C87.3961 33.834 87.0003 33.9121 86.6001 33.9579V33.9632Z" fill="#00000E"/>
<path d="M73.4688 7.97379L73.7745 8.39318L74.4897 8.04174L74.9066 8.39212C75.1204 7.78374 74.8104 7.78374 75.2679 7.16156C75.6474 6.64555 75.5886 6.62113 75.8088 6.01381C76.2781 6.06265 76.8275 6.23571 77.2487 6.25801C77.9232 6.29305 77.8324 5.89064 78.1103 5.48612C78.7741 5.89277 79.3076 6.69333 80.8608 6.94177C80.8715 7.82515 80.802 7.93557 81.1473 8.66287L81.3547 8.04811C81.9287 8.08421 82.1254 8.32948 82.2772 8.8147C82.8769 8.42079 82.9859 8.14686 82.9859 7.1743C83.4755 7.1743 84.6215 7.14138 84.7807 6.54893C84.8577 4.50506 83.1377 3.98799 82.4397 2.56525L82.7336 2.40917C81.2798 2.03438 81.9511 1.29434 80.1563 1.0013C77.1974 0.519265 78.3444 0.873888 76.773 1.23701C76.3593 0.623316 75.5843 0.330274 74.9942 1.03315C74.449 1.68294 74.2588 2.46014 74.0204 2.95597C72.8274 2.95597 72.9386 2.61515 72.9236 3.89774C72.914 4.71635 72.3186 4.71104 72.0535 5.22174C71.5981 6.09981 72.3143 6.31853 72.6585 6.49584C73.4068 6.87913 72.9728 7.30701 73.4688 7.97592V7.97379Z" fill="#060C2F"/>
<path d="M74.9066 8.39212C74.5805 9.17675 74.8371 9.34769 74.6864 9.9083C74.5731 10.5082 74.9461 11.2886 75.2209 11.6071C75.5918 12.0392 76.0066 12.3291 76.3005 12.8143C76.6212 12.6455 77.3877 12.8143 77.8762 12.8037C78.4449 12.7909 78.9014 12.688 79.4455 12.6296C80.1938 12.225 80.7838 11.7961 81.0489 10.9562C81.2542 10.3065 81.0607 10.299 81.2884 9.98793L81.3322 8.73506L81.1462 8.66499C80.7999 7.93663 80.8704 7.82727 80.8597 6.94389C79.3065 6.69544 78.7731 5.89489 78.1092 5.48824C77.8313 5.89276 77.9222 6.29516 77.2476 6.26013C76.8265 6.23889 76.277 6.06477 75.8077 6.01592C75.5864 6.62324 75.6463 6.6466 75.2668 7.16367C74.8093 7.78586 75.1246 7.78586 74.9055 8.39424L74.9066 8.39212Z" fill="#FDAE83"/>
<path d="M68.684 31.0774C68.6605 31.4586 68.8733 32.8665 68.9866 33.1192C69.3233 33.46 68.9973 33.8549 69.4804 34.1809C69.7348 34.3529 70.2768 34.527 70.574 34.6576C71.2485 34.9539 72.0866 35.4359 72.8349 35.5867C75.4004 35.5962 77.9777 35.5867 80.5476 35.5867C81.8303 35.5867 83.1206 35.5697 84.4012 35.5867C86.1725 35.6121 86.4323 35.8202 86.6012 33.9696C86.724 33.6527 86.8042 33.321 86.8396 32.9833C86.6578 33.1149 86.4836 33.4748 86.381 33.6479C84.01 33.7636 81.8068 33.7424 79.4326 33.6851C77.0584 33.6277 72.8477 33.907 70.7568 33.6224C70.001 33.5163 69.9422 33.5555 69.7819 32.8654C69.5585 31.9013 69.3842 30.9107 69.2089 29.9212C69.0336 28.9316 68.839 27.9516 68.6541 26.9557C68.5333 26.3059 68.11 24.4818 68.1496 23.9425C67.1672 24.0943 67.4782 24.6655 67.66 25.447C67.7957 26.0299 67.8983 26.6659 68.0106 27.288C68.2244 28.456 68.5771 29.9254 68.6873 31.0785L68.684 31.0774Z" fill="#97B3DE"/>
<path d="M82.6118 39.9706C83.0704 40.253 83.5354 39.9186 83.3365 41.2797C83.2083 42.1536 83.0885 42.1291 82.7026 42.66L81.8047 42.5687C81.8902 42.9244 81.8881 42.7556 81.8047 43.1113C82.4578 43.262 83.777 43.2673 84.6332 43.2673H84.7144C86.7348 43.2673 89.1496 43.0656 90.0903 40.9506C90.2806 40.5259 90.2208 40.0651 90.2208 39.4928C88.0828 37.7537 87.6071 38.6668 84.4868 39.3686C83.0073 39.702 83.824 39.4504 82.6118 39.9738V39.9706Z" fill="#31395D"/>
<path d="M83.6145 16.884L88.3105 12.4629L89.8252 10.6048C90.5126 9.40077 90.6141 7.50768 89.434 6.35037L89.14 6.14864C89.2726 7.52891 89.0513 8.36663 88.4452 9.39228C87.7151 10.6282 86.3072 12.3461 85.3099 13.4651C84.8823 13.9472 84.2655 14.6968 83.9961 15.2828C83.9074 15.475 83.5033 16.6334 83.6134 16.8755L83.6145 16.884Z" fill="#099994"/>
<path d="M75.9745 42.092C75.8291 41.9784 71.5404 41.1821 70.961 41.0674L67.2195 40.2552C66.6851 40.1139 66.5386 39.9292 65.9998 39.8761C66.1666 40.7096 66.5621 41.4432 67.1223 41.9147C67.8705 42.5443 68.405 42.2215 69.8086 42.4455C70.7824 42.6027 71.8226 42.5591 72.9204 42.5581C74.0183 42.557 75.2839 42.953 75.5159 42.0898L75.9745 42.092Z" fill="#31395D"/>
<path d="M80.6213 42.4827C81.143 42.4827 81.3055 42.5549 81.8058 42.5645L82.7037 42.6558C83.0896 42.1249 83.2093 42.1536 83.3376 41.2755C83.5375 39.9143 83.0714 40.2488 82.6128 39.9664L81.5439 39.8421C81.1163 39.7827 81.437 39.8209 81.3055 39.9005C81.2453 40.3552 81.1528 40.8051 81.0286 41.2468C80.9078 41.6556 80.6726 42.1026 80.6171 42.4817L80.6213 42.4827Z" fill="#FE9271"/>
<path d="M76.3005 12.8122C76.2941 13.0744 76.2449 13.1042 76.2257 13.343C76.2097 13.5448 76.2257 13.7932 76.2257 13.9992C76.4181 14.168 76.7217 14.3177 77.0338 14.4908C77.3763 14.6989 77.7785 14.7885 78.1776 14.7456C78.8554 14.6628 79.6379 13.9907 79.8367 13.5841C79.5844 13.5161 79.6111 13.5012 79.5256 13.2719C79.4587 13.0665 79.4319 12.8503 79.4465 12.6349C78.9024 12.6943 78.4449 12.7962 77.8773 12.809C77.3887 12.8196 76.6234 12.6508 76.3016 12.8196L76.3005 12.8122Z" fill="#ED877C"/>
<path d="M70.589 23.8766L70.7162 23.8883C70.776 23.6622 70.8231 23.6547 70.9845 23.4509C71.1181 23.2778 71.1983 23.1695 71.3266 23.0103C71.566 22.7225 71.7659 22.3732 72.0406 22.1694C72.1561 21.7298 72.5751 21.6385 72.5965 21.1554C72.581 20.745 72.447 20.3477 72.2106 20.0108C70.6071 21.4187 69.722 23.3904 69.2613 23.8565L70.589 23.8777V23.8766Z" fill="#099994"/>
<path d="M79.8367 13.5777C79.6379 13.9843 78.8554 14.6564 78.1776 14.7392C77.7777 14.7859 77.3735 14.6992 77.0285 14.4929C76.7174 14.3209 76.4128 14.1744 76.2204 14.0013C75.9595 13.8166 76.1819 13.9068 75.8868 13.9408C75.7335 13.9639 75.5822 13.9994 75.4347 14.047L75.5127 14.3581C76.1338 14.7244 76.9024 15.767 78.3284 15.5143C79.3813 15.3274 80.4065 13.9058 80.2322 13.4896C80.106 13.5399 79.9725 13.57 79.8367 13.5787V13.5777Z" fill="#FCFAFC"/>
<path d="M74.6864 9.9083C74.8371 9.34769 74.5795 9.17675 74.9066 8.39212L74.4897 8.04174L73.7745 8.39318L73.4688 7.97379C73.4688 8.35283 73.5607 8.77116 73.6014 9.0727C73.5939 9.77133 73.8023 9.50483 73.9413 9.9858C74.1829 9.99536 74.278 9.9083 74.6896 9.9083H74.6864Z" fill="#ED877C"/>
<path d="M81.1462 8.66286L81.3322 8.73294L81.2884 9.9858C81.8539 9.87326 81.9469 9.94015 82.2665 9.64392C82.2366 9.34344 82.2783 9.17038 82.2761 8.81363C82.1243 8.32841 81.9276 8.08315 81.3536 8.04705L81.1462 8.66286Z" fill="#ED877C"/>
<path d="M78.8169 10.8639C78.6448 10.9063 78.71 10.8639 78.6031 11.0168C78.508 11.1473 78.4043 11.5689 77.8794 11.5572C77.1386 11.5402 77.3096 10.9308 76.8446 10.8639C76.8746 11.3194 77.3791 11.795 77.8783 11.8056C78.3776 11.8162 79.0264 11.1962 78.8223 10.8639H78.8169Z" fill="#00000E"/>
</svg>
