<svg width="601" height="732" viewBox="0 0 601 732" fill="none" xmlns="http://www.w3.org/2000/svg">
<g opacity="0.72">
<path fill-rule="evenodd" clip-rule="evenodd" d="M558.324 476.043C515.637 504.736 469.402 518.106 414.353 494.474C380.041 479.748 396.713 477.701 375.573 488.832C346.705 504.034 310.208 512.19 273.708 504.248C243.254 497.617 209.874 477.132 197.488 458.605C188.229 460.223 176.316 466.595 164.62 469.138C108.142 481.434 81.7921 456.187 63.4331 450.889C72.2756 466.89 95.0902 483.872 117.376 491.116C151.883 502.331 168.764 492.427 197.128 483.125C210.552 510.2 243.879 537.223 285.408 541.279C325.819 545.222 374.495 524.014 387.939 497.674C399.703 503.336 405.523 511.415 427.111 518.792C443.928 524.535 463.373 526.468 482.28 523.619C515.132 518.675 549.493 496.144 558.324 476.043Z" fill="#B5B5B5"/>
<path fill-rule="evenodd" clip-rule="evenodd" d="M66.0928 452.515C84.2056 457.826 110.192 483.089 165.919 470.833C177.458 468.294 189.214 461.93 198.351 460.32C210.564 478.852 243.488 499.361 273.535 506.011C309.543 513.978 345.554 505.846 374.039 490.664C394.9 479.546 378.45 481.58 412.295 496.33C466.605 519.999 512.222 506.657 554.344 477.992C570.823 465.106 564.575 442.503 580.803 422.55C606.854 390.52 588.758 365.248 589.94 355.821C591.325 344.836 594.323 338.064 594.477 324.767C594.715 304.435 588.713 283.716 580.331 268.95C543.012 203.218 458.949 189.004 398.085 245.2C382.753 223.581 380.48 213.456 353.404 197.56C331.937 184.96 305.866 178.665 277.111 183.225C238.294 189.383 212.957 211.031 195.675 241.116C189.085 252.594 187.079 267.715 182.615 275.589C156.746 270.827 140.905 264.761 109.103 278.147C42.1885 306.312 24.7093 403.417 66.0928 452.515Z" fill="#E6E6E6"/>
<path fill-rule="evenodd" clip-rule="evenodd" d="M547.273 136.113C551.422 139.156 552.443 144.842 553.694 152.425C554.538 157.534 556.031 166.344 551.176 169.92C546.991 172.999 539.109 175.908 534.399 177.785C523.208 182.244 493.076 177.414 480.016 176.526L452.443 173.745C448.448 173.806 447.076 173.612 444.186 177.535C442.878 183.451 420.742 191.212 407.819 185.202C390.267 177.042 389.973 159.734 386.017 150.964C381.76 143.454 375.863 141.892 368.288 139.983C350.66 135.552 328.66 134.543 312.121 141.432C296.454 147.958 292.366 147.187 276.586 153.289C264.321 158.035 253.755 162.086 241.595 168.265C222.542 177.946 187.914 185.465 173.244 207.79C162.234 224.546 164.547 237.96 169.103 255.193C173.394 271.428 173.289 264.394 177.768 273.232C179.766 277.175 179.262 278.535 182.708 282.264C190.396 268.76 197.822 249.906 204.534 235.466C208.11 227.778 211.891 220.002 214.898 212.568C218.934 202.6 219.959 193.944 231.836 199.795C238.003 203.355 253.864 217.334 258.945 217.827L244.626 207.435C253.238 205.849 278.099 190.977 306.423 187.773C306.721 191.76 304.675 199.561 301.818 203.298C297.915 208.395 292.588 206.228 287.947 210.175C291.228 213.948 289.726 216.83 287.87 221.588C286.542 224.99 284.092 230.543 281.606 234.078C293.617 242.71 397.596 313.903 401.463 314.145C410.358 305.489 436.76 262.985 448.23 248.384C451.156 244.656 451.822 245.095 454.921 240.68C455.624 237.129 468.962 227.504 471.408 226.071C478.866 221.701 491.349 218.174 499.743 216.168C519.24 211.507 547.834 203.407 565.322 195.433C579.83 188.818 588.742 181.256 597.891 165.137L599.533 169.597C600.328 166.76 599.453 160.375 598.904 157.288C596.422 143.236 592.011 133.914 585.186 121.326C580.262 112.234 564.676 80.7198 556.842 74.9811L552.431 74.4484C549.081 95.4175 563.861 114.256 547.273 136.113Z" fill="#09BAB4"/>
<path fill-rule="evenodd" clip-rule="evenodd" d="M281.606 234.078L260.241 218.92L258.945 217.827C253.864 217.334 238.003 203.355 231.836 199.795C227.256 205.409 217.816 228.678 214.123 236.734C208.461 249.083 203.041 261.319 197.326 273.543C191.615 285.754 185.884 297.958 180.888 310.255C177.316 319.057 178.24 319.113 185.687 326.026C206.294 345.155 254.211 374.191 279.831 393.111C305.309 411.933 329.177 429.016 355.934 445.897C358.384 444.787 363.062 442.172 366.056 442.107C373.401 437.616 381.312 428.717 388.314 421.594C397.213 412.538 446.983 361.451 453 352.871C432.321 335.631 424.015 329.973 401.463 314.145C397.596 313.903 293.617 242.71 281.606 234.078Z" fill="#B0CAE8"/>
<path fill-rule="evenodd" clip-rule="evenodd" d="M412.92 65.1987L413.025 72.14L423.53 73.7583L425.383 80.7883C432.45 75.7841 429.015 73.3708 438.794 70.0414C446.906 67.277 446.442 66.5587 453.537 61.5827C458.279 65.7031 462.932 71.8171 467.356 75.2757C474.447 80.8206 476.549 75.7075 482.7 73.391C486.808 82.9313 486.465 95.809 501.487 110.426C494.795 120.213 493.189 120.882 491.349 131.524L498.351 126.355C504.336 131.141 504.586 135.342 502.504 141.823C512.081 142.086 515.39 139.914 522.881 129.24C528.22 132.985 540.973 141.392 547.273 136.113C563.861 114.256 549.081 95.4175 552.431 74.4484L556.842 74.9811C543.879 59.7506 556.903 56.7561 539.577 39.8024C511.023 11.8637 520.806 24.5356 500.861 16.5006C501.075 6.59715 494.88 -2.54761 483.035 0.64862C472.073 3.61078 464.022 10.6974 457.597 14.3052C444.577 5.17257 448.428 2.27903 438.378 16.2585C431.965 25.1813 425.504 20.5605 418.691 24.136C406.959 30.2985 413.09 38.1801 415.483 42.7484C420.689 52.6922 412.662 54.0643 412.92 65.1987Z" fill="#060C2F"/>
<path fill-rule="evenodd" clip-rule="evenodd" d="M425.383 80.7883C415.778 86.8983 417.267 90.7443 411.298 95.7485C405.442 101.479 403.521 112.872 404.054 118.473C404.776 126.056 407.065 132.408 406.524 139.991C411.334 140.597 418.381 148.317 423.793 151.937C430.093 156.146 435.868 158.515 442.261 162.034C453.517 163.297 463.28 163.128 472.643 155.936C479.895 150.367 477.837 148.801 482.712 147.138L492.838 133.72L491.349 131.524C493.189 120.882 494.795 120.213 501.487 110.426C486.465 95.809 486.808 82.9313 482.7 73.391C476.549 75.7075 474.447 80.8206 467.356 75.2757C462.933 71.8171 458.279 65.7031 453.537 61.5827C446.442 66.5587 446.906 67.277 438.794 70.0414C429.015 73.3708 432.45 75.7841 425.383 80.7883Z" fill="#FDAE83"/>
<path fill-rule="evenodd" clip-rule="evenodd" d="M182.708 282.264C179.512 286.271 170.984 303.362 170.266 307.002C171.315 313.318 164.724 315.162 167.481 322.422C168.938 326.256 173.502 332.318 175.738 336.026C180.811 344.441 186.244 356.152 193.234 363.533C221.194 383.308 249.34 402.861 277.377 422.534C291.361 432.345 305.567 442.043 319.398 452.047C338.524 465.881 339.775 470.163 355.85 451.119C357.96 449.977 364.18 444.642 366.056 442.107C363.062 442.172 358.384 444.787 355.934 445.897C329.177 429.016 305.309 411.933 279.831 393.11C254.211 374.191 206.294 345.155 185.687 326.026C178.24 319.113 177.316 319.057 180.888 310.255C185.884 297.958 191.615 285.754 197.326 273.543C203.041 261.319 208.461 249.083 214.123 236.734C217.816 228.678 227.256 205.409 231.836 199.795C219.959 193.944 218.934 202.6 214.898 212.568C211.891 220.002 208.11 227.778 204.534 235.466C197.822 249.906 190.396 268.76 182.708 282.264Z" fill="#97B3DE"/>
<path fill-rule="evenodd" clip-rule="evenodd" d="M454.921 240.68L540.207 228.065L571.016 219.304C587.789 211.349 603.489 191.345 599.534 169.597L597.891 165.137C588.742 181.256 579.831 188.818 565.322 195.433C547.834 203.407 519.241 211.507 499.743 216.168C491.349 218.174 478.866 221.701 471.408 226.071C468.962 227.504 455.624 237.129 454.921 240.68Z" fill="#099994"/>
<path fill-rule="evenodd" clip-rule="evenodd" d="M406.524 139.991C404.429 142.824 403.67 142.78 401.592 145.286C399.86 147.376 398.081 150.197 396.49 152.461C397.294 155.783 399.445 159.766 401.511 164.044C403.69 168.547 406.782 172.688 412.141 175.541C420.173 179.819 433.887 178.427 439.186 175.485C436.954 172.801 437.374 172.845 438.197 169.665C438.891 166.998 440.142 165.052 442.261 162.034C435.868 158.515 430.093 156.146 423.793 151.937C418.381 148.317 411.334 140.597 406.524 139.991Z" fill="#ED877C"/>
<path fill-rule="evenodd" clip-rule="evenodd" d="M258.945 217.827L260.241 218.92C262.642 216.894 263.26 217.205 266.545 216.168C269.325 215.292 271 214.683 273.676 213.948C278.503 212.621 283.39 210.296 287.947 210.175C292.588 206.228 297.915 208.395 301.818 203.298C304.675 199.561 306.721 191.76 306.423 187.773C278.099 190.977 253.239 205.849 244.626 207.435L258.945 217.827Z" fill="#099994"/>
<path fill-rule="evenodd" clip-rule="evenodd" d="M439.186 175.485C433.887 178.427 420.173 179.819 412.141 175.541C406.782 172.688 403.69 168.547 401.511 164.044C399.445 159.766 397.294 155.783 396.491 152.461C395.062 148.434 396.801 151.134 393.314 149.241C390.752 147.853 389.771 147.828 387.563 146.941L386.018 150.964C389.973 159.734 390.267 177.042 407.819 185.202C420.742 191.211 442.878 183.451 444.186 177.535C441.793 176.736 441.668 176.937 439.186 175.485Z" fill="#FCFAFC"/>
<path fill-rule="evenodd" clip-rule="evenodd" d="M411.298 95.7484C417.267 90.7442 415.778 86.8983 425.383 80.7883L423.531 73.7582L413.025 72.1399L412.921 65.1986C410.003 69.3594 407.783 74.6582 405.894 78.2822C400.434 85.8974 404.76 84.5616 402.565 90.9016C405.131 92.8549 406.843 92.6248 411.298 95.7484Z" fill="#ED877C"/>
<path fill-rule="evenodd" clip-rule="evenodd" d="M491.349 131.524L492.838 133.72L482.712 147.138C489.747 150.226 490.247 151.678 496.01 150.867C497.996 147.344 499.792 145.75 502.504 141.823C504.587 135.342 504.336 131.141 498.351 126.355L491.349 131.524Z" fill="#ED877C"/>
<path fill-rule="evenodd" clip-rule="evenodd" d="M448.989 137.852C446.789 137.001 447.774 137.045 445.417 137.856C443.383 138.559 439 142.4 433.366 138.252C425.415 132.396 431.986 127.017 427.425 122.723C424.245 127.957 426.037 137.005 431.441 140.968C436.821 144.919 448.654 143.066 448.989 137.852Z" fill="#00000E"/>
<path fill-rule="evenodd" clip-rule="evenodd" d="M135.876 384.648C133.116 391.319 130.202 392.416 126.307 398.736L101.431 443.326C97.7176 450.271 70.9478 501.871 68.934 503.283C66.1089 512.63 65.0596 511.31 61.5928 518.05C58.8444 523.397 58.0776 529.894 55.8619 535.597C53.6584 541.271 49.9373 543.333 46.9467 547.252C41.7566 554.056 44.2266 555.593 45.9943 561.021C50.6476 563.205 55.4825 567.947 60.265 571.074C65.564 574.541 70.3385 576.898 76.4366 579.815C76.9734 581.773 78.6886 577.874 76.2711 583.088C91.9504 577.947 151.56 494.805 164.587 488.501C169.41 479.55 178.838 470.728 185.239 463.282C188.064 459.997 192.394 453.762 195.579 451.179C201.612 446.292 205.426 451.974 211.1 449.004C225.791 426.901 250.623 384.817 246.281 359.683C245.03 352.431 235.55 340.486 221.92 334.045L208.505 329.985C197.746 328.504 185.626 331.034 173.454 340.813C166.876 346.099 138.73 376.879 135.876 384.648Z" fill="#060C2F"/>
<path fill-rule="evenodd" clip-rule="evenodd" d="M65.0071 595.082C59.1511 598.105 59.7564 605.103 46.6359 594.4C38.2091 587.528 39.2181 586.426 36.0782 579.049L42.6808 570.215C38.3907 568.863 40.1867 569.912 36.9459 566.78C31.2514 572.672 22.9093 586.478 17.5255 595.458L17.0169 596.313C4.32422 617.5 -8.71961 644.103 7.71029 667.34C11.0358 672.05 16.2461 674.31 22.2837 677.926C54.0861 666.501 47.427 655.742 59.6152 618.578C65.3986 600.95 62.9206 611.104 65.0071 595.082Z" fill="#31395D"/>
<path fill-rule="evenodd" clip-rule="evenodd" d="M77.4859 580.417C73.2483 585.929 72.2111 585.78 68.2479 591.139L61.9318 601.366C53.1982 601.136 52.4879 602.597 42.1481 596.801C26.0532 587.778 33.3903 585.594 34.1128 578.447L41.4297 566.195C44.2629 561.195 44.0893 561.728 45.9942 561.021C51.818 564.339 55.3493 567.813 60.8502 571.454C65.7376 574.387 73.0021 577.903 77.4859 580.417Z" fill="#FE9271"/>
<path fill-rule="evenodd" clip-rule="evenodd" d="M281.284 493.283C275.904 498.098 275.835 501.209 271.166 506.98L237.358 545.242C232.038 551.049 192.237 593.424 191.575 595.788C183.697 601.559 185.287 602.112 180.081 607.613C175.948 611.979 170.072 614.861 165.427 618.844C160.806 622.803 160.096 627 157.392 631.116C152.698 638.276 150.426 636.456 144.719 636.589C141.115 632.924 135.033 629.934 130.497 626.459C125.472 622.613 121.662 618.892 116.888 614.106C114.862 614.251 117.969 611.342 113.853 615.349C113.502 598.851 172.159 515.035 173.785 500.656C180.626 493.134 185.82 481.318 190.723 472.806C192.887 469.053 197.33 462.899 198.706 459.037C201.318 451.724 194.691 450.013 195.611 443.673C211.589 422.482 243.052 385.096 268.203 380.85C275.46 379.623 289.876 384.603 300.474 395.322L308.756 406.634C313.72 416.291 315.354 428.56 310.168 443.29C307.367 451.248 287.664 488.013 281.284 493.283Z" fill="#060C2F"/>
<path fill-rule="evenodd" clip-rule="evenodd" d="M143.863 647.073C138.116 650.298 138.964 657.267 125.48 647.033C116.815 640.459 117.784 639.325 114.39 632.061L120.681 623.001C116.343 621.798 118.175 622.783 114.829 619.768C109.341 625.854 101.487 639.946 96.422 649.107L95.9418 649.979C83.9997 671.598 71.8963 698.641 89.1252 721.293C92.6162 725.881 97.8991 727.956 104.062 731.358C135.444 718.831 128.414 708.31 139.295 670.742C144.457 652.921 142.338 663.159 143.863 647.073Z" fill="#31395D"/>
<path fill-rule="evenodd" clip-rule="evenodd" d="M115.503 613.743C113.49 620.402 112.949 625.103 110.899 631.447L106.265 642.537C111.54 649.503 110.765 650.931 121.497 655.964C138.205 663.793 135.707 656.557 141.095 651.811L146.797 638.724C149.215 633.51 147.499 637.412 146.963 635.455C140.865 632.537 136.09 630.18 130.791 626.714C126.009 623.586 120.157 615.926 115.503 613.743Z" fill="#FE9271"/>
</g>
</svg>
