<svg xmlns="http://www.w3.org/2000/svg" viewBox="0 0 2454.76 1953.02"><title>choiceРесурс 1</title><g id="Слой_2" data-name="Слой 2"><g id="Layer_1" data-name="Layer 1"><path d="M8.09,1953H2410.73c47-96.35,60.64-208.31,19.87-306.17-41-98.51-131.6-170.64-231.57-208-58.8-22-123.76-33.22-184.55-17.56-57.6,14.84-106.25,52.11-156.19,84.41-95.64,61.87-218.69,108.08-321.28,58.57-53.9-26-92.81-74.38-135.11-116.73-66.15-66.23-146.48-121.34-237.58-142.83s-193.8-5.59-264.81,55.41C842.74,1408.9,811.38,1480,774.26,1545S687,1675,614.75,1694.49C527.7,1718,439.55,1669,351,1651.83c-80.43-15.55-167.52-3.17-236.05,41.7S-.88,1817.26,0,1899.17A205.21,205.21,0,0,0,8.09,1953Z" fill="#aaa3cc"/><path d="M1796.9,1724a557.91,557.91,0,0,0,134.68-346.72,559.31,559.31,0,0,0-250.72,68.2l-5.83,38.09-21.88-21.88a561,561,0,0,0-263.33,457.34,558,558,0,0,0,378-163.72L1734.51,1722Z" fill="#a1bf00"/><path d="M1796.9,1724a557.91,557.91,0,0,0,134.68-346.72l-541.76,541.76a558,558,0,0,0,378-163.72L1734.51,1722Z" fill="#809900"/><path d="M1694.9,1398.76a557.91,557.91,0,0,0,.13-372A559.31,559.31,0,0,0,1486,1181.08l8.34,37.63L1466,1206.22a561,561,0,0,0-80,521.63,558,558,0,0,0,293.21-289.39l-43.14-19Z" fill="#a1bf00"/><path d="M1694.9,1398.76a557.91,557.91,0,0,0,.13-372l-309.08,701a558,558,0,0,0,293.21-289.39l-43.14-19Z" fill="#809900"/><path d="M538.62,1724a557.91,557.91,0,0,1-134.68-346.72,559.31,559.31,0,0,1,250.72,68.2l5.83,38.09,21.88-21.88A561,561,0,0,1,945.7,1919.08a558,558,0,0,1-378-163.72L601,1722Z" fill="#a1bf00"/><path d="M538.62,1724a557.91,557.91,0,0,1-134.68-346.72L945.7,1919.08a558,558,0,0,1-378-163.72L601,1722Z" fill="#809900"/><path d="M640.61,1398.76a557.91,557.91,0,0,1-.13-372,559.31,559.31,0,0,1,209.07,154.28l-8.34,37.63,28.31-12.48a561,561,0,0,1,80,521.63,558,558,0,0,1-293.21-289.39l43.14-19Z" fill="#a1bf00"/><path d="M640.61,1398.76a557.91,557.91,0,0,1-.13-372l309.08,701a558,558,0,0,1-293.21-289.39l43.14-19Z" fill="#809900"/><path d="M1760.69,123.44c-20.4-27.8-26.87-64.95-51.29-89.29-13.66-13.62-31.89-21.94-50.61-26.59s-38.1-5.9-57.36-7.09c-15.91-1-33.66-1.36-45.62,9.18-7,6.15-10.76,15.11-13.42,24a138.9,138.9,0,0,0,6.27,95.53,138.9,138.9,0,0,0,67.09,68.29c21.37-16.34,40.84-33.27,66.94-39.78,13.38-3.34,27.33-3.85,40.74-7.06S1753.75,135.35,1760.69,123.44Z" fill="#e16100"/><path d="M1635.43,251.46l-1.48,2.06c-16.5-4.69-28.09-20.24-32.82-36.73a170,170,0,0,1-6.17-53.74c-8.45-10.25-15.74-21.72-19.42-34.49s-3.47-27,2.49-38.86c5.42-10.8,15.2-19,26.1-24.2,23.69-11.36,52.06-9.34,76.7-.25s46.3,24.65,67.41,40.28c10.17,7.53,21.23,18.33,25,30.4,4.13,13.1-.1,27.28-5.21,40-10.69,26.66-26,52.43-49.21,69.33S1661.16,264.23,1635.43,251.46Z" fill="#e16100"/><path d="M1545.09,268.64l-210,99.17a75.54,75.54,0,0,0-31,109.58l118.44,181.5,17-56.19-64.16-120.83a21.54,21.54,0,0,1,11.94-30.45l168.69-58.79Z" fill="#35bbff"/><path d="M1690.76,379c7-26.53,6.74-53.07,6.28-79.6q-9.27-2.27-18.46-4.88c-1.28-.48-2.57-.93-3.9-1.33L1588,266.94a65.5,65.5,0,0,0-82.69,47.39L1422.56,658.9l172.06,52.16,69-187.17c5.12-36.67,13.54-71,20.17-108.87C1685.76,403,1687.76,391,1690.76,379Z" fill="#35bbff"/><path d="M1707.45,169l-47.66-14.45-38.47,126.91h0A39.53,39.53,0,0,0,1669,295.86Z" fill="#e6b29a"/><ellipse cx="1674.58" cy="191.53" rx="88" ry="64.8" transform="translate(1005.49 1738.54) rotate(-73.14)" fill="#ffc6ab"/><path d="M1600.27,174.52a117.3,117.3,0,0,0,100.33-7.82c.56,12,2.77,23.89,7.68,34.82s13.65,20.61,25,24.37c7.91-9.19,12.93-22.37,14.84-34.34s1.54-24.18,1-36.3c-.61-14.17-1.81-29.34-10.68-40.41-6.44-8-16.06-12.75-25.45-17-8.4-3.77-17-7.39-26.2-8.36-17.25-1.83-34.4,6.1-47.41,17.58s-22.58,26.26-32,40.85c-4.19,6.51-8.54,14.33-5.78,21.56A11.81,11.81,0,0,0,1600.27,174.52Z" fill="#e16100"/><rect x="707.22" y="280.02" width="921.06" height="1673" rx="165.25" ry="165.25" fill="#4a4a4a"/><path d="M1463,320H1336.88v4.55a60.69,60.69,0,0,1-60.69,60.69H1059.32a60.69,60.69,0,0,1-60.69-60.69V320H872.48A125.4,125.4,0,0,0,747.22,445.28V1787.77A125.4,125.4,0,0,0,872.48,1913H1463a125.4,125.4,0,0,0,125.26-125.26V445.28A125.4,125.4,0,0,0,1463,320Z" fill="#ebebeb"/><path d="M1463,320H1336.88v4.55a60.69,60.69,0,0,1-60.69,60.69H1059.32a60.69,60.69,0,0,1-60.69-60.69V320H872.48A125.4,125.4,0,0,0,747.22,445.28V1787.77A125.4,125.4,0,0,0,872.48,1913H1463a125.4,125.4,0,0,0,125.26-125.26V445.28A125.4,125.4,0,0,0,1463,320Z" fill="#ebebeb"/><rect x="840.92" y="516.6" width="653.66" height="867.38" fill="#fff"/><rect x="840.92" y="1453.89" width="653.66" height="156.63" rx="38.86" ry="38.86" fill="#ff5200"/><g opacity="0.6"><path d="M747.22,1376.36l841.07-841.07v-90a125.23,125.23,0,0,0-55.15-103.75L747.22,1127.45Z" fill="#fff"/><polygon points="1588.29 679.51 1588.29 586.2 747.22 1427.27 747.22 1520.58 1588.29 679.51" fill="#fff"/></g><path d="M371.31,828.07l-.82,2.4c-17.15.3-32.76-11.22-42.06-25.63a170,170,0,0,1-21.49-49.64c-11.06-7.36-21.37-16.22-28.59-27.37S267.2,703,269.45,689.92c2.05-11.91,9-22.57,18-30.73,19.37-17.74,47.11-24,73.33-22.49s51.46,10.16,76.19,19c11.91,4.25,25.63,11.38,32.77,21.83,7.75,11.34,7.81,26.13,6.62,39.82-2.49,28.61-9.66,57.72-27,80.62S399.63,832.83,371.31,828.07Z" fill="#8e3500"/><path d="M289.83,870.72,117.67,1026.54a75.54,75.54,0,0,0,2.12,113.86l166,139.34V1221l-96.46-97a21.54,21.54,0,0,1,2.59-32.6L336.31,986.2Z" fill="#ff5200"/><polygon points="465.59 1911.28 397.11 1911.28 367.43 1279.74 465.59 1279.74 465.59 1911.28" fill="#00335d"/><polygon points="319.79 1911.28 251.31 1911.28 285.79 1279.74 383.95 1279.74 319.79 1911.28" fill="#00335d"/><polygon points="397.09 1911.28 383.95 1953.02 532.37 1953.02 465.89 1911.28 397.09 1911.28" fill="#ff5200"/><polygon points="251.32 1911.28 238.18 1953.02 386.59 1953.02 320.12 1911.28 251.32 1911.28" fill="#ff5200"/><path d="M819.68,676.73c12-27.06,24.51-54.91,46.13-75.11a37.29,37.29,0,0,1-4.69,34.76c4.32,4.42,8.61,8.79,10.73,14.59,3.14,8.6.52,18.46-4.59,26.06s-12.45,13.37-19.66,19a38.65,38.65,0,0,1-27.24-14" fill="#ffc6ab"/><path d="M822.26,671.36C723.79,785.2,575.54,854.24,425.09,856.79c-1.36-.08-2.73-.14-4.12-.14H330.4A65.5,65.5,0,0,0,265,926l20.78,353.75H465.59l12.73-216.65c3.32-56.52,38.71-105.88,90.82-128,37-15.7,71.94-36.79,103.93-61,67.79-51.24,123.59-116,179.22-180.21C843.29,686.38,831.26,678.86,822.26,671.36Z" fill="#ff5200"/><path d="M416.29,860.83h0a39.53,39.53,0,0,1-49.8,0h0V728.22h49.8Z" fill="#e6b29a"/><ellipse cx="391.39" cy="759.36" rx="64.8" ry="88" fill="#ffc6ab"/><path d="M315.34,764.64a117.3,117.3,0,0,0,93.75-36.59c4,11.3,9.58,22.06,17.45,31.1s19,15.76,31,16.06c4.91-11.09,5.88-25.15,4.24-37.17s-5.54-23.59-9.56-35c-4.7-13.38-10.24-27.56-21.94-35.58-8.49-5.82-19.06-7.54-29.28-8.85-9.13-1.17-18.45-2.12-27.5-.4-17,3.25-31.15,15.82-40.27,30.57s-14,31.68-18.74,48.37c-2.12,7.44-4,16.19.72,22.31A11.81,11.81,0,0,0,315.34,764.64Z" fill="#8e3500"/><path d="M1486,1727.85H849.48a31.5,31.5,0,0,1-31.5-31.5h0a31.5,31.5,0,0,1,31.5-31.5H1486a31.5,31.5,0,0,1,31.5,31.5h0A31.5,31.5,0,0,1,1486,1727.85Z" fill="#ccc"/><rect x="817.98" y="1782.18" width="699.56" height="63.01" rx="31.5" ry="31.5" fill="#ccc"/><path d="M1472.38,772.66c-26.73,12.7-54.23,26-73.85,48.12a37.29,37.29,0,0,0,34.62-5.62c4.53,4.2,9,8.37,14.87,10.33,8.68,2.91,18.47,0,25.93-5.29s13-12.8,18.48-20.17a38.65,38.65,0,0,0-14.75-26.85Z" fill="#ffc6ab"/><path d="M1695.8,298.79c20.32,12,34,33.19,41.2,55.67s8.59,46.37,9.06,70c.84,41.61-1,83.73-12.34,123.79-16.66,59-53.29,111.08-97.79,153.32s-96.76,75.4-150.11,105.7c-5.3-10.22-9.55-23.28-14.85-33.49,125.94-99.5,207.11-254.67,213.68-415C1685.42,340,1688.82,316.11,1695.8,298.79Z" fill="#35bbff"/></g></g></svg>