<svg width="40" height="40" viewBox="0 0 40 40" fill="none" xmlns="http://www.w3.org/2000/svg">
<path d="M13.7133 25.0167H10V21.6667H13.7683C16.8983 21.6667 17.1067 25.0167 13.7133 25.0167ZM24.9767 20.555H30.0067C29.8117 17.6967 25.4567 17.26 24.9767 20.555ZM13.6367 15H10V18.3333H13.9817C16.77 18.3333 17.21 15 13.6367 15ZM40 8.33333V31.6667C40 36.2683 36.27 40 31.6667 40H8.33333C3.73 40 0 36.2683 0 31.6667V8.33333C0 3.73167 3.73 0 8.33333 0H31.6667C36.27 0 40 3.73167 40 8.33333ZM23.3333 13.3333H31.6667V11.6667H23.3333V13.3333ZM17.4133 19.3633C20.5917 17.74 20.475 11.78 14.3917 11.69H6.66667V28.32H13.8517C21.3883 28.32 21.26 20.7633 17.4133 19.3633ZM33.225 20.3667C32.7683 17.4283 30.6783 15.45 27.2533 15.45C23.7633 15.45 21.6667 17.6833 21.6667 22.0283C21.6667 26.4133 23.945 28.3333 27.36 28.3333C30.775 28.3333 32.5367 26.4417 33.0267 25H29.5083C28.2817 26.425 24.6867 25.8683 24.8967 22.745H33.33C33.3467 21.6883 33.31 20.93 33.225 20.3667Z" fill="#F96714"/>
</svg>
