<svg width="40" height="40" viewBox="0 0 40 40" fill="none" xmlns="http://www.w3.org/2000/svg">
<path d="M31.6667 0.000244141H8.33333C3.73167 0.000244141 0 3.73191 0 8.33358V31.6669C0 36.2686 3.73167 40.0002 8.33333 40.0002H31.6667C36.27 40.0002 40 36.2686 40 31.6669V8.33358C40 3.73191 36.27 0.000244141 31.6667 0.000244141ZM26.6667 11.6669H23.46C22.435 11.6669 21.6667 12.0869 21.6667 13.1486V15.0002H26.6667L26.27 20.0002H21.6667V33.3336H16.6667V20.0002H13.3333V15.0002H16.6667V11.7952C16.6667 8.42524 18.44 6.66691 22.435 6.66691H26.6667V11.6669Z" fill="#F96714"/>
</svg>
