<svg width="40" height="40" viewBox="0 0 40 40" fill="none" xmlns="http://www.w3.org/2000/svg">
<path d="M25.3883 9.14667C23.9833 9.08333 23.56 9.07 20 9.07C16.44 9.07 16.0183 9.08333 14.6133 9.14667C10.9967 9.31167 9.31167 11.025 9.14833 14.6117C9.08333 16.0183 9.06833 16.44 9.06833 20C9.06833 23.56 9.08333 23.9817 9.14667 25.3883C9.31167 28.9683 10.99 30.6883 14.6117 30.8533C16.0167 30.9167 16.44 30.9317 20 30.9317C23.5617 30.9317 23.9833 30.9183 25.3883 30.855C29.005 30.69 30.6883 28.9733 30.8533 25.39C30.9167 23.9833 30.93 23.5617 30.93 20.0017C30.93 16.4417 30.9167 16.02 30.8533 14.615C30.6883 11.0267 29.0017 9.31167 25.3883 9.14667V9.14667ZM20 26.8467C16.2183 26.8467 13.1533 23.7817 13.1533 20C13.1533 16.2183 16.22 13.1533 20 13.1533C23.78 13.1533 26.8467 16.2183 26.8467 20C26.8467 23.7817 23.7817 26.8467 20 26.8467ZM27.1183 14.4833C26.235 14.4833 25.5183 13.7667 25.5183 12.8833C25.5183 12 26.235 11.2833 27.1183 11.2833C28.0017 11.2833 28.7183 12 28.7183 12.8833C28.7183 13.7667 28.0017 14.4833 27.1183 14.4833ZM24.445 20C24.445 22.455 22.455 24.445 20 24.445C17.545 24.445 15.555 22.455 15.555 20C15.555 17.545 17.545 15.555 20 15.555C22.455 15.555 24.445 17.545 24.445 20ZM31.6667 0H8.33333C3.73167 0 0 3.73167 0 8.33333V31.6667C0 36.2683 3.73167 40 8.33333 40H31.6667C36.27 40 40 36.2683 40 31.6667V8.33333C40 3.73167 36.27 0 31.6667 0V0ZM33.2533 25.4967C33.0333 30.345 30.335 33.0317 25.4983 33.2533C24.075 33.3183 23.6217 33.3333 20 33.3333C16.3783 33.3333 15.9267 33.3183 14.5033 33.2533C9.65667 33.0317 6.97 30.34 6.74667 25.4967C6.68167 24.075 6.66667 23.6217 6.66667 20C6.66667 16.38 6.68167 15.925 6.74667 14.5033C6.97 9.65667 9.66 6.96833 14.5033 6.74833C15.9267 6.68167 16.3783 6.66667 20 6.66667C23.6217 6.66667 24.075 6.68167 25.4983 6.74667C30.345 6.96833 33.0367 9.665 33.2533 14.5017C33.3183 15.925 33.3333 16.38 33.3333 20C33.3333 23.6217 33.3183 24.075 33.2533 25.4967V25.4967Z" fill="#09BAB4"/>
</svg>
