<svg width="593" height="509" viewBox="0 0 593 509" fill="none" xmlns="http://www.w3.org/2000/svg">
<path d="M404.162 248.876V322.684H590V428.783H128.7V322.684H315.197V246.24L128.7 124.984V12.2953L351.442 163.206L590 7.68229V128.938L404.162 248.876Z" fill="#09BAB4" fill-opacity="0.4"/>
<path d="M169.411 451.216C178.078 451.216 184.734 453.296 189.379 457.456C194.024 461.547 196.347 467.752 196.347 476.072V508H181.163V501.032C178.112 506.232 172.427 508.832 164.107 508.832C159.808 508.832 156.064 508.104 152.875 506.648C149.755 505.192 147.363 503.181 145.699 500.616C144.035 498.051 143.203 495.139 143.203 491.88C143.203 486.68 145.144 482.589 149.027 479.608C152.979 476.627 159.046 475.136 167.227 475.136H180.123C180.123 471.6 179.048 468.896 176.899 467.024C174.75 465.083 171.526 464.112 167.227 464.112C164.246 464.112 161.299 464.597 158.387 465.568C155.544 466.469 153.118 467.717 151.107 469.312L145.283 457.976C148.334 455.827 151.974 454.163 156.203 452.984C160.502 451.805 164.904 451.216 169.411 451.216ZM168.163 497.912C170.936 497.912 173.398 497.288 175.547 496.04C177.696 494.723 179.222 492.816 180.123 490.32V484.6H168.995C162.339 484.6 159.011 486.784 159.011 491.152C159.011 493.232 159.808 494.896 161.403 496.144C163.067 497.323 165.32 497.912 168.163 497.912ZM260.777 452.048V508H244.553V487.2C239.838 489.557 234.638 490.736 228.953 490.736C221.395 490.736 215.675 489.037 211.793 485.64C207.979 482.173 206.073 476.835 206.073 469.624V452.048H222.297V468.584C222.297 471.981 223.163 474.443 224.897 475.968C226.699 477.493 229.265 478.256 232.593 478.256C236.822 478.256 240.809 477.355 244.553 475.552V452.048H260.777ZM330.747 480.232C330.747 480.44 330.643 481.896 330.435 484.6H288.107C288.869 488.067 290.672 490.805 293.515 492.816C296.357 494.827 299.893 495.832 304.123 495.832C307.035 495.832 309.6 495.416 311.819 494.584C314.107 493.683 316.221 492.296 318.163 490.424L326.795 499.784C321.525 505.816 313.829 508.832 303.707 508.832C297.397 508.832 291.816 507.619 286.963 505.192C282.109 502.696 278.365 499.264 275.731 494.896C273.096 490.528 271.779 485.571 271.779 480.024C271.779 474.547 273.061 469.624 275.627 465.256C278.261 460.819 281.832 457.387 286.339 454.96C290.915 452.464 296.011 451.216 301.627 451.216C307.104 451.216 312.061 452.395 316.499 454.752C320.936 457.109 324.403 460.507 326.899 464.944C329.464 469.312 330.747 474.408 330.747 480.232ZM301.731 463.488C298.056 463.488 294.971 464.528 292.475 466.608C289.979 468.688 288.453 471.531 287.899 475.136H315.459C314.904 471.6 313.379 468.792 310.883 466.712C308.387 464.563 305.336 463.488 301.731 463.488ZM369.807 508.832C363.844 508.832 358.471 507.619 353.687 505.192C348.972 502.696 345.263 499.264 342.559 494.896C339.924 490.528 338.607 485.571 338.607 480.024C338.607 474.477 339.924 469.52 342.559 465.152C345.263 460.784 348.972 457.387 353.687 454.96C358.471 452.464 363.844 451.216 369.807 451.216C375.7 451.216 380.831 452.464 385.199 454.96C389.636 457.387 392.86 460.888 394.871 465.464L382.287 472.224C379.375 467.093 375.18 464.528 369.703 464.528C365.473 464.528 361.972 465.915 359.199 468.688C356.425 471.461 355.039 475.24 355.039 480.024C355.039 484.808 356.425 488.587 359.199 491.36C361.972 494.133 365.473 495.52 369.703 495.52C375.249 495.52 379.444 492.955 382.287 487.824L394.871 494.688C392.86 499.125 389.636 502.592 385.199 505.088C380.831 507.584 375.7 508.832 369.807 508.832ZM451.535 465.36H432.607V508H416.487V465.36H397.559V452.048H451.535V465.36ZM502.927 478.776C509.513 480.995 512.807 485.432 512.807 492.088C512.807 497.149 510.9 501.067 507.087 503.84C503.273 506.613 497.588 508 490.031 508H460.183V452.048H488.783C495.785 452.048 501.263 453.331 505.215 455.896C509.167 458.392 511.143 461.928 511.143 466.504C511.143 469.277 510.415 471.739 508.959 473.888C507.572 475.968 505.561 477.597 502.927 478.776ZM475.055 475.032H487.327C493.012 475.032 495.855 473.021 495.855 469C495.855 465.048 493.012 463.072 487.327 463.072H475.055V475.032ZM488.679 496.976C494.641 496.976 497.623 494.931 497.623 490.84C497.623 488.691 496.929 487.131 495.543 486.16C494.156 485.12 491.972 484.6 488.991 484.6H475.055V496.976H488.679ZM551.086 508.832C545.193 508.832 539.889 507.619 535.174 505.192C530.529 502.696 526.889 499.264 524.254 494.896C521.619 490.528 520.302 485.571 520.302 480.024C520.302 474.477 521.619 469.52 524.254 465.152C526.889 460.784 530.529 457.387 535.174 454.96C539.889 452.464 545.193 451.216 551.086 451.216C556.979 451.216 562.249 452.464 566.894 454.96C571.539 457.387 575.179 460.784 577.814 465.152C580.449 469.52 581.766 474.477 581.766 480.024C581.766 485.571 580.449 490.528 577.814 494.896C575.179 499.264 571.539 502.696 566.894 505.192C562.249 507.619 556.979 508.832 551.086 508.832ZM551.086 495.52C555.246 495.52 558.643 494.133 561.278 491.36C563.982 488.517 565.334 484.739 565.334 480.024C565.334 475.309 563.982 471.565 561.278 468.792C558.643 465.949 555.246 464.528 551.086 464.528C546.926 464.528 543.494 465.949 540.79 468.792C538.086 471.565 536.734 475.309 536.734 480.024C536.734 484.739 538.086 488.517 540.79 491.36C543.494 494.133 546.926 495.52 551.086 495.52Z" fill="#9EA1A1"/>
</svg>
