<svg width="40" height="40" viewBox="0 0 40 40" fill="none" xmlns="http://www.w3.org/2000/svg">
<path d="M31.6667 0H8.33333C3.73167 0 0 3.73167 0 8.33333V31.6667C0 36.2683 3.73167 40 8.33333 40H31.6667C36.27 40 40 36.2683 40 31.6667V8.33333C40 3.73167 36.27 0 31.6667 0ZM32.0833 28.3267H28.5267C26.5183 28.3267 26.1783 27.1817 24.525 25.5283C23.03 24.0333 22.2 25.18 22.235 27.3083C22.245 27.8733 21.9667 28.3267 21.2917 28.3267C19.185 28.3267 16.1583 28.6233 13.095 25.3167C9.95667 21.9283 6.66667 15.1317 6.66667 14.4617C6.66667 14.0667 6.99333 13.8883 7.54 13.8883H11.1567C12.1133 13.8883 12.195 14.3617 12.4617 14.97C13.5733 17.505 16.2367 22.5933 16.945 19.7533C17.3517 18.1233 17.5183 14.345 15.7733 14.02C14.7833 13.8367 16.5267 12.7767 19.0533 12.7767C19.6817 12.7767 20.3633 12.845 21.0617 13.005C22.3433 13.3033 22.3467 13.8767 22.33 14.715C22.265 17.8867 21.8817 20.0217 22.7183 20.56C23.5167 21.0767 25.6167 17.6983 26.7233 15.0917C27.0283 14.37 27.0883 13.8883 27.9467 13.8883H32.37C34.6867 13.8883 32.0667 17.2167 30.065 19.8167C28.4517 21.9083 28.5383 21.95 30.4133 23.69C31.7517 24.93 33.33 26.6233 33.33 27.5833C33.3333 28.0367 32.98 28.3267 32.0833 28.3267Z" fill="#09BAB4"/>
</svg>
